<?xml version="1.0" standalone="no"?>
<!DOCTYPE svg PUBLIC "-//W3C//DTD SVG 20010904//EN"
 "http://www.w3.org/TR/2001/REC-SVG-20010904/DTD/svg10.dtd">
<svg version="1.0" xmlns="http://www.w3.org/2000/svg"
 width="695.000000pt" height="695.000000pt" viewBox="0 0 695.000000 695.000000"
 preserveAspectRatio="xMidYMid meet">
<metadata>
Created by potrace 1.14, written by Peter Selinger 2001-2017
</metadata>
<g transform="translate(0.000000,695.000000) scale(0.100000,-0.100000)"
fill="#000000" stroke="none">
<path d="M3328 5999 c-463 -36 -908 -244 -1267 -593 -410 -400 -665 -923 -758
-1551 -24 -168 -24 -579 0 -755 30 -213 83 -429 153 -619 46 -126 168 -373
239 -486 236 -372 559 -669 920 -845 772 -377 1648 -225 2284 394 410 400 665
923 758 1551 24 168 24 579 0 755 -45 322 -125 587 -262 865 -124 253 -254
441 -435 629 -381 396 -835 617 -1350 656 -74 5 -144 9 -155 9 -11 -1 -68 -6
-127 -10z m419 -105 c424 -63 804 -263 1129 -596 130 -133 198 -216 287 -353
409 -627 531 -1433 332 -2192 -84 -318 -228 -616 -428 -883 -83 -112 -271
-307 -377 -393 -243 -197 -559 -347 -855 -408 -145 -30 -459 -37 -613 -15
-432 64 -810 262 -1138 598 -130 133 -198 216 -287 353 -409 627 -531 1433
-332 2192 110 420 321 796 614 1097 186 190 343 306 561 416 195 98 365 153
565 184 126 20 412 20 542 0z"/>
<path d="M3075 5080 c-232 -42 -445 -153 -608 -317 -88 -89 -113 -121 -169
-217 -140 -238 -176 -574 -92 -863 91 -313 299 -552 578 -663 70 -27 203 -60
246 -60 20 0 20 -4 20 -350 0 -323 -2 -355 -20 -406 -10 -31 -31 -71 -45 -90
l-26 -34 180 0 c100 0 181 4 181 9 0 5 -6 14 -14 20 -7 6 -26 39 -42 74 l-29
62 -3 348 -3 347 263 3 c145 1 292 1 328 1 75 -2 160 -29 232 -75 42 -27 56
-45 94 -120 52 -105 87 -221 103 -342 25 -184 109 -292 270 -347 69 -23 161
-27 161 -7 0 7 -21 18 -47 25 -96 26 -147 114 -173 299 -16 121 -57 289 -84
348 -53 117 -159 191 -315 222 l-84 17 86 22 c254 68 404 204 458 414 22 86
17 271 -9 342 -27 74 -89 165 -149 218 -166 145 -349 180 -999 187 l-401 5 41
-83 41 -82 3 -484 c3 -556 16 -504 -108 -450 -194 85 -337 228 -445 444 -172
347 -151 809 53 1157 61 104 194 240 282 289 123 67 186 82 355 82 126 0 163
-4 228 -23 110 -32 190 -75 255 -138 l57 -55 124 3 125 3 -32 36 c-35 40 -151
123 -221 159 -24 12 -87 33 -140 47 -82 22 -122 26 -276 29 -99 1 -202 -1
-230 -6z m569 -966 c150 -9 331 -56 426 -112 163 -94 262 -289 245 -482 -9
-103 -21 -152 -65 -245 -50 -107 -112 -175 -203 -220 -126 -61 -156 -65 -499
-65 l-308 0 0 565 0 564 58 4 c59 4 194 0 346 -9z"/>
</g>
</svg>
