<?xml version="1.0" standalone="no"?>
<!DOCTYPE svg PUBLIC "-//W3C//DTD SVG 20010904//EN"
 "http://www.w3.org/TR/2001/REC-SVG-20010904/DTD/svg10.dtd">
<svg version="1.0" xmlns="http://www.w3.org/2000/svg"
 width="700.000000pt" height="700.000000pt" viewBox="0 0 700.000000 700.000000"
 preserveAspectRatio="xMidYMid meet">
<metadata>
Created by potrace 1.14, written by Peter Selinger 2001-2017
</metadata>
<g transform="translate(0.000000,700.000000) scale(0.100000,-0.100000)"
fill="#000000" stroke="none">
<path d="M2426 6984 c-257 -57 -460 -240 -543 -489 -25 -73 -27 -93 -27 -230
0 -135 3 -157 26 -222 41 -116 95 -202 177 -284 88 -87 188 -150 298 -187 68
-22 96 -26 213 -26 152 -1 229 16 350 80 375 196 501 684 269 1041 -92 141
-266 267 -424 309 -88 23 -255 27 -339 8z"/>
<path d="M6159 6989 c-229 -33 -436 -185 -539 -394 -59 -118 -75 -189 -75
-330 0 -97 5 -134 24 -195 64 -208 198 -367 386 -456 110 -52 184 -68 315 -68
178 0 318 47 450 153 295 237 364 653 159 968 -49 75 -164 186 -241 231 -139
82 -314 116 -479 91z"/>
<path d="M2425 5135 c-198 -44 -374 -171 -478 -346 -138 -233 -125 -554 31
-781 272 -395 862 -417 1165 -43 167 206 206 492 102 746 -45 111 -149 240
-251 310 -159 109 -385 155 -569 114z"/>
<path d="M4274 5136 c-140 -32 -263 -98 -358 -192 -163 -161 -240 -378 -215
-605 45 -395 405 -683 800 -639 387 44 664 370 646 760 -9 193 -74 337 -212
475 -144 143 -285 204 -485 211 -76 2 -136 -1 -176 -10z"/>
<path d="M6115 5135 c-440 -96 -689 -570 -519 -989 82 -203 275 -371 491 -427
106 -28 260 -28 366 0 199 52 372 192 460 371 64 130 81 201 81 335 -1 341
-225 626 -556 705 -96 23 -231 25 -323 5z"/>
<path d="M648 3300 c-167 -20 -305 -87 -424 -205 -88 -87 -139 -165 -177 -272
-148 -410 93 -852 521 -954 169 -41 371 -13 521 73 421 241 496 821 148 1155
-161 155 -375 228 -589 203z"/>
<path d="M2490 3300 c-380 -45 -658 -379 -637 -765 10 -188 75 -333 212 -470
137 -137 282 -202 470 -212 423 -23 767 301 767 722 0 124 -21 215 -72 320
-135 278 -433 441 -740 405z"/>
<path d="M4295 3296 c-155 -30 -275 -94 -386 -205 -191 -191 -260 -453 -188
-713 87 -313 373 -528 704 -528 205 0 361 66 510 215 149 149 215 305 215 510
0 282 -152 530 -402 656 -128 65 -316 92 -453 65z"/>
<path d="M6159 3299 c-368 -54 -637 -387 -616 -764 10 -188 75 -333 212 -470
91 -91 175 -144 290 -182 72 -25 94 -27 225 -27 131 0 153 2 225 27 204 68
366 220 452 422 55 128 66 315 29 460 -54 208 -231 407 -433 490 -114 46 -259
63 -384 44z"/>
<path d="M590 1446 c-178 -38 -325 -129 -431 -266 -154 -199 -197 -456 -115
-692 34 -97 79 -170 160 -255 113 -121 243 -190 408 -219 368 -64 726 169 825
536 12 44 17 102 17 180 0 131 -16 205 -68 315 -88 186 -248 322 -451 385 -90
27 -254 35 -345 16z"/>
<path d="M4265 1444 c-95 -21 -237 -91 -313 -156 -281 -239 -341 -647 -141
-955 92 -141 266 -268 424 -309 255 -66 520 8 705 195 136 139 199 283 208
478 3 83 0 131 -13 190 -56 254 -243 460 -490 539 -103 33 -274 42 -380 18z"/>
</g>
</svg>
