<?xml version="1.0" standalone="no"?>
<!DOCTYPE svg PUBLIC "-//W3C//DTD SVG 1.1//EN" "http://www.w3.org/Graphics/SVG/1.1/DTD/svg11.dtd" >
<svg xmlns="http://www.w3.org/2000/svg" xmlns:xlink="http://www.w3.org/1999/xlink" version="1.1">
<metadata>
Created by FontForge 20170731 at Wed Mar 16 03:53:18 2022
 By Aleksey,,,
Copyright (c) 2019 by Fontastica. All rights reserved.
</metadata>
<defs>
<font id="Nord-Light" horiz-adv-x="542" >
  <font-face 
    font-family="Nord Light"
    font-weight="300"
    font-stretch="normal"
    units-per-em="2048"
    panose-1="0 0 4 0 0 0 0 0 0 0"
    ascent="1638"
    descent="-410"
    x-height="1294"
    cap-height="1294"
    bbox="6 -313 2290 1778"
    underline-thickness="102"
    underline-position="-307"
    unicode-range="U+0020-2212"
  />
<missing-glyph horiz-adv-x="841" 
 />
    <glyph glyph-name=".notdef" horiz-adv-x="841" 
 />
    <glyph glyph-name=".null" horiz-adv-x="0" 
 />
    <glyph glyph-name="nonmarkingreturn" horiz-adv-x="682" 
 />
    <glyph glyph-name="space" unicode=" " horiz-adv-x="632" 
 />
    <glyph glyph-name="exclam" unicode="!" 
d="M246 352q-41 345 -41 723v219h133v-219q0 -352 -41 -723h-51zM270 -29q-49 0 -76.5 32t-27.5 89q0 56 27.5 87.5t76.5 31.5q51 0 80 -31.5t29 -87.5q0 -57 -29 -89t-80 -32z" />
    <glyph glyph-name="quotedbl" unicode="&#x22;" horiz-adv-x="856" 
d="M199 856q-33 121 -33 291v147h133v-147q0 -170 -33 -291h-67zM594 856q-35 118 -35 291v147h135v-147q0 -163 -35 -291h-65z" />
    <glyph glyph-name="numbersign" unicode="#" horiz-adv-x="1564" 
d="M307 0l58 313h-226v97h244l88 475h-225v96h243l56 313h112l-57 -313h438l56 313h112l-57 -313h227v-96h-246l-86 -475h226v-97h-244l-57 -313h-111l60 313h-443l-55 -313h-113zM494 410h438l88 475h-438z" />
    <glyph glyph-name="dollar" unicode="$" horiz-adv-x="1036" 
d="M463 -268v321q-405 38 -457 275h109q28 -76 111 -119t237 -62v463q-43 2 -70 3.5t-68 6t-68.5 10.5t-62.5 17t-57.5 26t-46.5 37t-38 50t-23 65t-9 82q0 154 107 234.5t336 99.5v309h84v-313q361 -38 414 -272h-111q-25 73 -98.5 116t-204.5 60v-434q51 -1 90 -3.5
t87 -11t83.5 -21.5t71 -36.5t58 -55t36.5 -78t14 -104.5q0 -158 -106.5 -240.5t-333.5 -101.5v-323h-84zM463 705v436q-334 -39 -334 -223q0 -31 8 -57t18.5 -45.5t31.5 -35t37.5 -26t46 -19t47 -13t51 -8.5t48 -5.5t46.5 -3.5zM547 152q338 37 338 239q0 53 -22.5 93
t-54.5 62t-81.5 36.5t-88.5 19.5t-91 8v-458z" />
    <glyph glyph-name="percent" unicode="%" horiz-adv-x="1880" 
d="M457 741q-148 0 -239 98.5t-91 258.5q0 162 92.5 265t237.5 103q146 0 236.5 -102.5t90.5 -265.5q0 -162 -89 -259.5t-238 -97.5zM457 854q98 0 158.5 69t60.5 181q0 113 -60.5 182.5t-158.5 69.5t-159.5 -70t-61.5 -184q0 -111 61 -179.5t160 -68.5zM498 84l-76 82
l960 1044l76 -80zM1427 -172q-149 0 -240 98t-91 258q0 163 92.5 266t238.5 103q145 0 235.5 -102.5t90.5 -266.5q0 -161 -89 -258.5t-237 -97.5zM1425 -59q99 0 160.5 68.5t61.5 180.5t-62 182t-160 70t-159.5 -70t-61.5 -182t61 -180.5t160 -68.5z" />
    <glyph glyph-name="ampersand" unicode="&#x26;" horiz-adv-x="1253" 
d="M549 -31q-195 0 -308.5 96.5t-113.5 262.5q0 129 75.5 221.5t260.5 189.5q-37 48 -58 77t-51.5 79.5t-45.5 99t-15 95.5q0 104 82.5 168.5t216.5 64.5q135 0 220 -70t85 -182q0 -56 -18.5 -102.5t-63.5 -90.5t-70.5 -63.5t-88.5 -61.5q-5 -4 -8 -6t-7 -5t-8 -5l276 -405
q4 7 21 39.5t23.5 44.5t18.5 37t19.5 45.5t14.5 42.5l104 -27q-41 -148 -117 -254q6 -6 36 -35.5t41.5 -40t35.5 -32.5t43.5 -37.5t40.5 -30.5l-78 -107q-79 49 -194 173q-106 -105 -183.5 -143t-185.5 -38zM571 809q18 15 66 48t76 55t53 63.5t25 87.5q0 77 -50.5 121.5
t-136.5 44.5q-87 0 -139.5 -32t-52.5 -97q0 -27 8.5 -56.5t18 -51t31 -53t32.5 -45.5t37.5 -46t31.5 -39zM524 66q77 0 144.5 35t171.5 128l-326 443q-131 -71 -193.5 -153t-62.5 -185q0 -120 73.5 -194t192.5 -74z" />
    <glyph glyph-name="quotesingle" unicode="'" horiz-adv-x="462" 
d="M199 856q-33 121 -33 291v147h133v-147q0 -170 -33 -291h-67z" />
    <glyph glyph-name="parenleft" unicode="(" 
d="M387 -297q-125 189 -192.5 434.5t-67.5 509.5t67.5 509.5t192.5 434.5l92 -67q-106 -186 -162.5 -413t-56.5 -464q0 -236 56.5 -462t162.5 -414z" />
    <glyph glyph-name="parenright" unicode=")" 
d="M156 -297l-93 68q105 188 161.5 414.5t56.5 461.5q0 236 -56.5 463t-161.5 414l93 67q125 -189 192.5 -434.5t67.5 -509.5t-67.5 -509.5t-192.5 -434.5z" />
    <glyph glyph-name="asterisk" unicode="*" horiz-adv-x="856" 
d="M430 1079q-31 71 -31 99v116h58v-116q0 -26 -27 -99zM319 999q-40 6 -74 19t-53.5 25t-64.5 42l31 60q65 -39 94.5 -66t66.5 -80zM539 999q30 47 62 76.5t99 69.5l31 -60q-69 -45 -105.5 -62t-86.5 -24zM432 858l-57 41v80l61 20l45 -24v-66zM158 725l-31 59
q81 51 116 64q33 11 72 16q-34 -51 -62 -76t-95 -63zM698 725q-65 37 -94.5 64t-62.5 75q39 -5 73 -17.5t53 -23.5t64 -39zM399 571v121q0 25 31 96q27 -73 27 -96v-121h-58z" />
    <glyph glyph-name="plus" unicode="+" horiz-adv-x="1300" 
d="M584 143v443h-394v125h394v442h135v-442h393v-125h-393v-443h-135z" />
    <glyph glyph-name="comma" unicode="," 
d="M221 -293l-14 14q26 41 46 91.5t48 144.5q-76 22 -98 38q-37 28 -37 91q0 60 28 92.5t80 32.5q105 0 105 -141q0 -100 -43 -198.5t-115 -164.5z" />
    <glyph glyph-name="hyphen" unicode="-" horiz-adv-x="1169" 
d="M190 586v125h789v-125h-789z" />
    <glyph glyph-name="period" unicode="." 
d="M270 -29q-49 0 -76.5 32t-27.5 89q0 56 27.5 87.5t76.5 31.5q51 0 80 -31.5t29 -87.5q0 -57 -29 -89t-80 -32z" />
    <glyph glyph-name="slash" unicode="/" horiz-adv-x="1032" 
d="M199 -176l-99 53l734 1593l98 -53z" />
    <glyph glyph-name="zero" unicode="0" horiz-adv-x="1433" 
d="M713 -29q-267 0 -407 172t-140 500q0 332 141.5 506t411.5 174q268 0 409.5 -172.5t141.5 -499.5q0 -330 -143.5 -505t-413.5 -175zM717 113q192 0 297.5 139.5t105.5 394.5q0 257 -105.5 398t-297.5 141t-299 -141.5t-107 -397.5q0 -255 106 -394.5t300 -139.5z" />
    <glyph glyph-name="one" unicode="1" horiz-adv-x="514" 
d="M190 0v1294h136v-1294h-136z" />
    <glyph glyph-name="two" unicode="2" horiz-adv-x="1300" 
d="M152 0v133q0 151 126.5 289t360.5 242q8 4 25 11q36 16 55.5 24.5t54.5 27t55.5 33t46.5 38t40 47t24 54.5t10 66q0 99 -82 160t-217 61q-123 0 -209 -54.5t-108 -146.5h-154q20 160 140 249t315 89q211 0 337 -96.5t126 -257.5q0 -81 -32.5 -148t-82.5 -111t-120 -85.5
t-134.5 -69t-138.5 -64.5t-119 -69q-69 -49 -106 -109.5t-37 -122.5v-65h796v-125h-972z" />
    <glyph glyph-name="three" unicode="3" horiz-adv-x="1296" 
d="M645 -29q-212 0 -335.5 80.5t-143.5 231.5h151q23 -81 109 -125.5t219 -44.5q161 0 250.5 63t89.5 178q0 43 -12 77.5t-32.5 58t-49 41.5t-61.5 27.5t-69.5 16.5t-73.5 8.5t-73 3t-68 -0.5h-32v125h31h77t75.5 4t77.5 12.5t65.5 25t56.5 40t34.5 60.5t14.5 85
q0 117 -82.5 182.5t-230.5 65.5q-121 0 -200 -45t-101 -127h-156q20 151 137.5 230t321.5 79q224 0 341.5 -96t117.5 -279q0 -48 -9 -85.5t-21 -62.5t-40 -52.5t-48 -42.5t-65 -45q-11 -7 -16 -11q109 -59 142 -85q82 -66 94 -176q2 -22 2 -46q0 -178 -126.5 -274.5
t-361.5 -96.5z" />
    <glyph glyph-name="four" unicode="4" horiz-adv-x="1308" 
d="M809 0v285h-733v139l725 870h143v-884h238v-125h-238v-285h-135zM207 410h602v727z" />
    <glyph glyph-name="five" unicode="5" horiz-adv-x="1296" 
d="M643 -29q-211 0 -334 80.5t-143 231.5h151q23 -80 109 -125t215 -45q163 0 253.5 67.5t90.5 190.5q0 121 -89 188.5t-249 67.5h-461v667h856v-125h-718v-415q32 0 92.5 1.5t103.5 2.5t105.5 -1t108.5 -7.5t102 -18t96 -31t80.5 -48.5t65 -69t40 -94t15.5 -122
q0 -192 -126 -294t-364 -102z" />
    <glyph glyph-name="six" unicode="6" horiz-adv-x="1304" 
d="M678 -29q-268 0 -409.5 171t-141.5 495q0 329 139.5 507.5t397.5 178.5q188 0 311 -83.5t145 -225.5h-149q-26 79 -112 125.5t-206 46.5q-129 0 -207.5 -53.5t-121 -175.5t-54.5 -332q59 60 193 101.5t248 41.5q213 0 341 -107.5t128 -287.5q0 -184 -136 -293t-366 -109z
M670 113q164 0 262 72.5t98 195.5q0 120 -96.5 191t-259.5 71q-99 0 -203 -41t-188 -110q37 -198 129 -288.5t258 -90.5z" />
    <glyph glyph-name="seven" unicode="7" horiz-adv-x="1214" 
d="M412 0l510 1169h-783v125h922v-147l-502 -1147h-147z" />
    <glyph glyph-name="eight" unicode="8" horiz-adv-x="1300" 
d="M649 -29q-231 0 -357 91.5t-126 259.5q0 68 17 118.5t60.5 90t70.5 57t92 52.5q11 6 16 9q-97 66 -131 99q-86 87 -86 225q0 169 115.5 259.5t330.5 90.5t331 -90.5t116 -259.5q0 -52 -11.5 -94.5t-28 -72t-46 -57.5t-55 -46.5t-64.5 -44.5q-3 -2 -5 -3t-4.5 -3t-4.5 -3
q109 -58 146 -87q108 -85 112 -227v-13q0 -167 -127.5 -259t-360.5 -92zM651 711q141 0 220 62.5t79 172.5q0 112 -79.5 176t-219.5 64t-219.5 -64t-79.5 -176q0 -110 79 -172.5t220 -62.5zM651 113q158 0 248 62.5t90 172.5t-90 174t-246 64q-158 0 -250 -64t-92 -174
t90 -172.5t250 -62.5z" />
    <glyph glyph-name="nine" unicode="9" horiz-adv-x="1304" 
d="M647 -29q-199 0 -342.5 87.5t-171.5 224.5h156q31 -75 131.5 -122.5t230.5 -47.5q97 0 163 27t113 91t72.5 168.5t34.5 262.5q-110 -77 -212 -105.5t-222 -28.5q-217 0 -345 107.5t-128 288.5q0 184 135 291.5t365 107.5q270 0 411.5 -170.5t141.5 -495.5
q0 -327 -139.5 -506.5t-393.5 -179.5zM627 653q103 0 195.5 36t199.5 116q-35 197 -128 289t-257 92q-163 0 -262 -75t-99 -198q0 -118 95.5 -189t255.5 -71z" />
    <glyph glyph-name="colon" unicode=":" 
d="M270 815q-49 0 -76.5 30.5t-27.5 86.5q0 57 27.5 89t76.5 32q51 0 80 -32t29 -89q0 -55 -29 -86t-80 -31zM270 -29q-49 0 -76.5 32t-27.5 89q0 56 27.5 87.5t76.5 31.5q51 0 80 -31.5t29 -87.5q0 -57 -29 -89t-80 -32z" />
    <glyph glyph-name="semicolon" unicode=";" 
d="M270 815q-49 0 -76.5 30.5t-27.5 86.5q0 57 27.5 89t76.5 32q51 0 80 -32t29 -89q0 -55 -29 -86t-80 -31zM221 -293l-14 14q26 41 46 91.5t48 144.5q-76 22 -98 38q-37 28 -37 91q0 60 28 92.5t80 32.5q105 0 105 -141q0 -100 -43 -198.5t-115 -164.5z" />
    <glyph glyph-name="equal" unicode="=" horiz-adv-x="1300" 
d="M190 870v125h922v-125h-922zM190 301v125h922v-125h-922z" />
    <glyph glyph-name="question" unicode="?" horiz-adv-x="1376" 
d="M651 500q-35 104 -35 225h91q198 0 303.5 58t105.5 167q0 114 -112.5 181t-301.5 67q-171 0 -290 -54t-148 -145h-137q28 149 187.5 236.5t404.5 87.5q250 0 391 -102.5t141 -284.5q0 -168 -116 -246.5t-385 -91.5q-5 -16 -14.5 -49t-14.5 -49h-70zM686 -29q-50 0 -78 32
t-28 89q0 56 28.5 87.5t77.5 31.5q51 0 79 -31.5t28 -87.5q0 -57 -28 -89t-79 -32z" />
    <glyph glyph-name="at" unicode="@" horiz-adv-x="2011" 
d="M1090 -313q-214 0 -393.5 70t-305 196.5t-195 307.5t-69.5 398q0 213 63.5 390t178 300t280 191t363.5 68q252 0 448.5 -98t305 -275.5t108.5 -405.5q0 -266 -141 -419.5t-385 -153.5q-18 0 -32 1t-25 6t-17.5 7t-15 12.5t-11 13.5t-12 18.5t-12.5 19.5
q-139 -82 -277 -64q-136 18 -227.5 118.5t-91.5 252.5q0 151 89.5 252.5t223.5 120.5q102 14 190 -19t105 -100l8 92h139v-637q34 9 78 27q262 101 262 434q0 193 -91 346.5t-254.5 239.5t-368.5 86q-216 0 -382.5 -103.5t-258 -291.5t-91.5 -431q0 -251 103.5 -443
t293 -297t437.5 -105q114 0 224 22t188 60l53 -95q-86 -54 -213.5 -83t-271.5 -29zM1014 389q95 0 166 75.5t71 178.5t-70 177.5t-165 74.5q-97 0 -167.5 -74.5t-70.5 -177.5q0 -104 69.5 -179t166.5 -75z" />
    <glyph glyph-name="A" unicode="A" horiz-adv-x="1433" 
d="M76 0l553 1305h157l572 -1305h-146l-153 356h-692l-150 -356h-141zM410 479h612l-313 715z" />
    <glyph glyph-name="B" unicode="B" horiz-adv-x="1511" 
d="M190 0v1294h803q148 0 238 -96t90 -254q0 -113 -40.5 -181.5t-127.5 -109.5q93 -15 157 -104.5t64 -196.5q0 -160 -90.5 -256t-241.5 -96h-852zM326 711h667q91 0 142 59.5t51 165.5t-52.5 169.5t-140.5 63.5h-667v-458zM326 125h716q92 0 144.5 59.5t52.5 165.5
q0 107 -54 171.5t-143 64.5h-716v-461z" />
    <glyph glyph-name="C" unicode="C" horiz-adv-x="1466" 
d="M743 -29q-176 0 -316.5 87t-220 241.5t-79.5 347.5t79.5 347.5t220 241.5t316.5 87q218 0 379.5 -130t216.5 -351h-153q-50 158 -170 251t-275 93q-199 0 -332 -153.5t-133 -383.5q0 -231 132.5 -383.5t332.5 -152.5q156 0 276 92t169 250h153q-56 -222 -216.5 -353
t-379.5 -131z" />
    <glyph glyph-name="D" unicode="D" horiz-adv-x="1525" 
d="M190 0v1294h592q177 0 318 -82.5t220 -230t79 -332.5t-79.5 -333.5t-220.5 -232t-317 -83.5h-592zM326 125h456q133 0 240.5 67.5t168 187t60.5 267.5t-60.5 267.5t-168 187t-240.5 67.5h-456v-1044z" />
    <glyph glyph-name="E" unicode="E" horiz-adv-x="1497" 
d="M190 0v1294h1156v-125h-1020v-458h759v-125h-759v-461h1020v-125h-1156z" />
    <glyph glyph-name="F" unicode="F" horiz-adv-x="1447" 
d="M190 0v1294h1131v-125h-995v-458h733v-125h-733v-586h-136z" />
    <glyph glyph-name="G" unicode="G" horiz-adv-x="1488" 
d="M745 -29q-177 0 -318 87t-220.5 241.5t-79.5 347.5q0 192 79 346.5t219 242t314 87.5q173 0 316 -84t225 -235l-172 -3q-68 88 -164.5 136.5t-204.5 48.5q-199 0 -331 -153t-132 -384q0 -232 133 -384t334 -152q186 0 319.5 128t156.5 330h-412v125h553l2 -49
q0 -193 -79.5 -347.5t-220.5 -241.5t-317 -87z" />
    <glyph glyph-name="H" unicode="H" horiz-adv-x="1562" 
d="M190 0v1294h136v-583h913v583h135v-1294h-135v586h-913v-586h-136z" />
    <glyph glyph-name="I" unicode="I" horiz-adv-x="514" 
d="M190 0v1294h136v-1294h-136z" />
    <glyph glyph-name="J" unicode="J" horiz-adv-x="1247" 
d="M598 -29q-183 0 -311 122.5t-148 316.5h137q22 -134 109.5 -215.5t210.5 -81.5q140 0 234 104t94 260v817h133v-817q0 -218 -130.5 -362t-328.5 -144z" />
    <glyph glyph-name="K" unicode="K" horiz-adv-x="1423" 
d="M190 0v1294h136v-778l792 778h187l-535 -524l567 -770h-161l-498 680l-352 -344v-336h-136z" />
    <glyph glyph-name="L" unicode="L" horiz-adv-x="1214" 
d="M190 0v1294h136v-1169h786v-125h-922z" />
    <glyph glyph-name="M" unicode="M" horiz-adv-x="1562" 
d="M190 0v1294h140l454 -614l449 614h141v-1294h-135v1104l-405 -553h-107l-401 553v-1104h-136z" />
    <glyph glyph-name="N" unicode="N" horiz-adv-x="1562" 
d="M190 0v1294h144l905 -1095v1095h135v-1294h-145l-903 1098v-1098h-136z" />
    <glyph glyph-name="O" unicode="O" horiz-adv-x="1488" 
d="M743 -29q-176 0 -316.5 87t-220 241.5t-79.5 347.5t79.5 347.5t220 241.5t316.5 87q177 0 318.5 -87t221 -241.5t79.5 -347.5t-79.5 -347.5t-221 -241.5t-318.5 -87zM743 113q203 0 337 152t134 382q0 152 -61 275.5t-169 193.5t-241 70q-201 0 -334 -153.5t-133 -383.5
q0 -232 133 -384t334 -152z" />
    <glyph glyph-name="P" unicode="P" horiz-adv-x="1511" 
d="M190 0v1294h881q149 0 238.5 -97.5t89.5 -258.5t-89.5 -256.5t-238.5 -95.5h-745v-586h-136zM326 711h745q91 0 142 59.5t51 165.5t-52.5 169.5t-140.5 63.5h-745v-458z" />
    <glyph glyph-name="Q" unicode="Q" horiz-adv-x="1474" 
d="M750 -29q-178 0 -320.5 87t-222.5 241.5t-80 347.5t79.5 347.5t220 241.5t316.5 87q132 0 247 -51.5t197 -141.5t128.5 -217t46.5 -274q0 -227 -133 -422l131 -145l-105 -88l-118 131q-96 -76 -188 -110t-199 -34zM754 113q79 0 143 23.5t145 84.5l-231 256l100 92
l222 -245q47 107 64 177t17 146q0 152 -61 275.5t-169 193.5t-241 70q-201 0 -334 -153.5t-133 -383.5q0 -233 135.5 -384.5t342.5 -151.5z" />
    <glyph glyph-name="R" unicode="R" horiz-adv-x="1536" 
d="M190 0v1294h881q149 0 238.5 -97.5t89.5 -258.5q0 -150 -77.5 -247t-209.5 -103l-92 -4l332 -584h-150l-330 586h-546v-586h-136zM326 711h745q91 0 142 59.5t51 165.5t-52.5 169.5t-140.5 63.5h-745v-458z" />
    <glyph glyph-name="S" unicode="S" horiz-adv-x="1376" 
d="M717 -29q-243 0 -402.5 88.5t-187.5 237.5h137q29 -92 146.5 -146.5t285.5 -54.5q192 0 306 71.5t114 192.5q0 116 -110.5 178t-317.5 62q-286 0 -413.5 80t-127.5 260q0 181 133.5 282t372.5 101q235 0 387.5 -87.5t178.5 -236.5h-138q-28 91 -139 145t-272 54
q-178 0 -282.5 -67t-104.5 -181q0 -109 101.5 -167t291.5 -58q302 0 438.5 -84t136.5 -270q0 -189 -141 -294.5t-393 -105.5z" />
    <glyph glyph-name="T" unicode="T" horiz-adv-x="1384" 
d="M625 0v1169h-525v125h1184v-125h-524v-1169h-135z" />
    <glyph glyph-name="U" unicode="U" horiz-adv-x="1509" 
d="M756 -29q-161 0 -290.5 83.5t-202.5 231.5t-73 332v676h136v-676q0 -219 122 -362t308 -143t308 143.5t122 361.5v676h135v-676q0 -184 -73 -332t-202 -231.5t-290 -83.5z" />
    <glyph glyph-name="V" unicode="V" horiz-adv-x="1433" 
d="M629 0l-553 1305h141l492 -1155l503 1155h146l-572 -1305h-157z" />
    <glyph glyph-name="W" unicode="W" horiz-adv-x="1603" 
d="M246 0l-146 1294h129l133 -1110l353 826h178l362 -826l121 1110h127l-141 -1294h-174l-387 895l-379 -895h-176z" />
    <glyph glyph-name="X" unicode="X" horiz-adv-x="1306" 
d="M51 0l514 674l-473 620h170l395 -516l396 516h164l-482 -616l520 -678h-178l-436 573l-432 -573h-158z" />
    <glyph glyph-name="Y" unicode="Y" horiz-adv-x="1236" 
d="M551 0v453l-500 841h152l418 -696l409 696h156l-500 -841v-453h-135z" />
    <glyph glyph-name="Z" unicode="Z" horiz-adv-x="1458" 
d="M152 0v135l960 1034h-936v125h1106v-135l-963 -1034h988v-125h-1155z" />
    <glyph glyph-name="bracketleft" unicode="[" horiz-adv-x="638" 
d="M190 -285v1864h332v-125h-196v-1614h196v-125h-332z" />
    <glyph glyph-name="backslash" unicode="\" horiz-adv-x="1032" 
d="M834 -176l-734 1593l99 53l733 -1593z" />
    <glyph glyph-name="bracketright" unicode="]" horiz-adv-x="638" 
d="M117 -285l-2 125h194l2 1614h-196v125h331v-1864h-329z" />
    <glyph glyph-name="underscore" unicode="_" horiz-adv-x="1169" 
d="M190 -272v125h789v-125h-789z" />
    <glyph glyph-name="a" unicode="a" horiz-adv-x="1433" 
d="M76 0l553 1305h157l572 -1305h-146l-153 356h-692l-150 -356h-141zM410 479h612l-315 721z" />
    <glyph glyph-name="b" unicode="b" horiz-adv-x="1511" 
d="M190 0v1294h803q148 0 238 -96t90 -254q0 -113 -40.5 -181.5t-127.5 -109.5q93 -15 157 -104.5t64 -196.5q0 -160 -90.5 -256t-241.5 -96h-852zM326 711h667q91 0 142 59.5t51 165.5t-52.5 169.5t-140.5 63.5h-667v-458zM326 125h716q92 0 144.5 59.5t52.5 165.5
q0 107 -54 171.5t-143 64.5h-716v-461z" />
    <glyph glyph-name="c" unicode="c" horiz-adv-x="1466" 
d="M743 -29q-176 0 -316.5 87t-220 241.5t-79.5 347.5t79.5 347.5t220 241.5t316.5 87q218 0 379.5 -130t216.5 -351h-153q-50 158 -170 251t-275 93q-199 0 -332 -153.5t-133 -383.5q0 -231 132.5 -383.5t332.5 -152.5q156 0 276 92t169 250h153q-56 -222 -216.5 -353
t-379.5 -131z" />
    <glyph glyph-name="d" unicode="d" horiz-adv-x="1525" 
d="M190 0v1294h592q177 0 318 -82.5t220 -230t79 -332.5t-79.5 -333.5t-220.5 -232t-317 -83.5h-592zM326 125h456q133 0 240.5 67.5t168 187t60.5 267.5t-60.5 267.5t-168 187t-240.5 67.5h-456v-1044z" />
    <glyph glyph-name="e" unicode="e" horiz-adv-x="1497" 
d="M190 0v1294h1156v-125h-1020v-458h759v-125h-759v-461h1020v-125h-1156z" />
    <glyph glyph-name="f" unicode="f" horiz-adv-x="1447" 
d="M190 0v1294h1131v-125h-995v-458h733v-125h-733v-586h-136z" />
    <glyph glyph-name="g" unicode="g" horiz-adv-x="1488" 
d="M745 -29q-177 0 -318 87t-220.5 241.5t-79.5 347.5q0 192 79 346.5t219 242t314 87.5q173 0 316 -84t225 -235l-172 -3q-68 88 -164.5 136.5t-204.5 48.5q-199 0 -331 -153t-132 -384q0 -232 133 -384t334 -152q186 0 319.5 128t156.5 330h-412v125h553l2 -49
q0 -193 -79.5 -347.5t-220.5 -241.5t-317 -87z" />
    <glyph glyph-name="h" unicode="h" horiz-adv-x="1562" 
d="M190 0v1294h136v-583h913v583h135v-1294h-135v586h-913v-586h-136z" />
    <glyph glyph-name="i" unicode="i" horiz-adv-x="514" 
d="M190 0v1294h136v-1294h-136z" />
    <glyph glyph-name="j" unicode="j" horiz-adv-x="1271" 
d="M623 -29q-183 0 -310 122t-147 317h135q22 -132 110.5 -214.5t211.5 -82.5q138 0 231.5 104.5t93.5 259.5v817h135v-817q0 -218 -131 -362t-329 -144z" />
    <glyph glyph-name="k" unicode="k" horiz-adv-x="1423" 
d="M190 0v1294h136v-778l792 778h187l-535 -524l567 -770h-161l-498 680l-352 -344v-336h-136z" />
    <glyph glyph-name="l" unicode="l" horiz-adv-x="1214" 
d="M190 0v1294h136v-1169h786v-125h-922z" />
    <glyph glyph-name="m" unicode="m" horiz-adv-x="1562" 
d="M190 0v1294h140l454 -614l449 614h141v-1294h-135v1104l-405 -553h-107l-401 553v-1104h-136z" />
    <glyph glyph-name="n" unicode="n" horiz-adv-x="1562" 
d="M190 0v1294h144l905 -1095v1095h135v-1294h-145l-903 1098v-1098h-136z" />
    <glyph glyph-name="o" unicode="o" horiz-adv-x="1488" 
d="M743 -29q-176 0 -316.5 87t-220 241.5t-79.5 347.5t79.5 347.5t220 241.5t316.5 87q177 0 318.5 -87t221 -241.5t79.5 -347.5t-79.5 -347.5t-221 -241.5t-318.5 -87zM743 113q203 0 337 152t134 382q0 152 -61 275.5t-169 193.5t-241 70q-201 0 -334 -153.5t-133 -383.5
q0 -232 133 -384t334 -152z" />
    <glyph glyph-name="p" unicode="p" horiz-adv-x="1525" 
d="M190 0v1294h881q149 0 238.5 -97.5t89.5 -258.5t-89.5 -256.5t-238.5 -95.5h-745v-586h-136zM326 711h745q91 0 142 59.5t51 165.5t-52.5 169.5t-140.5 63.5h-745v-458z" />
    <glyph glyph-name="q" unicode="q" horiz-adv-x="1474" 
d="M750 -29q-178 0 -320.5 87t-222.5 241.5t-80 347.5t79.5 347.5t220 241.5t316.5 87q132 0 247 -51.5t197 -141.5t128.5 -217t46.5 -274q0 -227 -133 -422l131 -145l-105 -88l-118 131q-96 -76 -188 -110t-199 -34zM754 113q79 0 143 23.5t145 84.5l-231 256l100 92
l222 -245q47 107 64 177t17 146q0 152 -61 275.5t-169 193.5t-241 70q-201 0 -334 -153.5t-133 -383.5q0 -233 135.5 -384.5t342.5 -151.5z" />
    <glyph glyph-name="r" unicode="r" horiz-adv-x="1536" 
d="M190 0v1294h881q149 0 238.5 -97.5t89.5 -258.5q0 -150 -77.5 -247t-209.5 -103l-92 -4l332 -584h-150l-330 586h-546v-586h-136zM326 711h745q91 0 142 59.5t51 165.5t-52.5 169.5t-140.5 63.5h-745v-458z" />
    <glyph glyph-name="s" unicode="s" horiz-adv-x="1376" 
d="M717 -29q-243 0 -402.5 88.5t-187.5 237.5h137q29 -92 146.5 -146.5t285.5 -54.5q192 0 306 71.5t114 192.5q0 116 -110.5 178t-317.5 62q-286 0 -413.5 80t-127.5 260q0 181 133.5 282t372.5 101q235 0 387.5 -87.5t178.5 -236.5h-138q-28 91 -139 145t-272 54
q-178 0 -282.5 -67t-104.5 -181q0 -109 101.5 -167t291.5 -58q302 0 438.5 -84t136.5 -270q0 -189 -141 -294.5t-393 -105.5z" />
    <glyph glyph-name="t" unicode="t" horiz-adv-x="1384" 
d="M625 0v1169h-525v125h1184v-125h-524v-1169h-135z" />
    <glyph glyph-name="u" unicode="u" horiz-adv-x="1509" 
d="M756 -29q-161 0 -290.5 83.5t-202.5 231.5t-73 332v676h136v-676q0 -219 122 -362t308 -143t308 143.5t122 361.5v676h135v-676q0 -184 -73 -332t-202 -231.5t-290 -83.5z" />
    <glyph glyph-name="v" unicode="v" horiz-adv-x="1433" 
d="M629 0l-553 1305h141l492 -1155l503 1155h146l-572 -1305h-157z" />
    <glyph glyph-name="w" unicode="w" horiz-adv-x="1603" 
d="M246 0l-146 1294h129l133 -1110l353 826h178l362 -826l121 1110h127l-141 -1294h-174l-387 895l-379 -895h-176z" />
    <glyph glyph-name="x" unicode="x" horiz-adv-x="1378" 
d="M76 0l530 674l-489 620h162l413 -524l406 524h166l-494 -620l533 -674h-164l-455 573l-444 -573h-164z" />
    <glyph glyph-name="y" unicode="y" horiz-adv-x="1286" 
d="M551 0v453l-500 841h152l418 -696l409 696h156l-500 -841v-453h-135z" />
    <glyph glyph-name="z" unicode="z" horiz-adv-x="1458" 
d="M152 0v135l960 1034h-936v125h1106v-135l-963 -1034h988v-125h-1155z" />
    <glyph glyph-name="braceleft" unicode="{" horiz-adv-x="704" 
d="M590 -285q-150 0 -240 99t-90 264v299q0 91 -54.5 150t-139.5 59l-3 125q86 0 141.5 59t55.5 150v299q0 164 89.5 262t240.5 98v-125q-86 0 -141.5 -55.5t-55.5 -141.5v-280q0 -89 -32.5 -161.5t-90.5 -113.5l-75 -55l75 -53q123 -88 123 -275v-282q0 -86 55.5 -141.5
t141.5 -55.5v-125z" />
    <glyph glyph-name="bar" unicode="|" horiz-adv-x="514" 
d="M190 -285v1866h136v-1866h-136z" />
    <glyph glyph-name="braceright" unicode="}" horiz-adv-x="702" 
d="M115 -285v125q86 0 140 54.5t54 142.5v282q0 87 33.5 158.5t93.5 116.5l78 53l-78 55q-60 43 -93.5 115t-33.5 160v280q0 88 -54 142.5t-140 54.5v125q151 0 241 -98t90 -262v-299q0 -92 54 -150.5t139 -58.5l2 -125q-85 0 -140 -59t-55 -150v-299q0 -166 -90 -264.5
t-241 -98.5z" />
    <glyph glyph-name="cent" unicode="&#xa2;" horiz-adv-x="1062" 
d="M463 -268v415l-23 5q-171 31 -274 166t-103 329q0 195 103.5 331t273.5 167l23 4v401h84v-395q328 -43 416 -340h-91q-37 111 -112 172t-213 92v-860q137 28 212.5 89t112.5 175h91q-88 -302 -416 -342v-409h-84zM463 219v856l-51 -16q-123 -41 -195 -151.5t-72 -260.5
q0 -149 72 -259.5t195 -151.5z" />
    <glyph glyph-name="sterling" unicode="&#xa3;" horiz-adv-x="1091" 
d="M801 -29q-76 0 -223 46t-224 46q-114 0 -219 -63l-57 141q95 85 145.5 183.5t50.5 199.5q0 51 -20 133h-191v107h179q-62 198 -62 297q0 59 15 123.5t38 107.5q41 78 130.5 131.5t203.5 53.5q139 0 243.5 -86t133.5 -224l-141 -24q-28 101 -88.5 154t-147.5 53
q-110 0 -181 -79.5t-71 -203.5q0 -111 72 -303h285v-107h-258v-32q0 -62 -0.5 -89.5t-4.5 -70t-12.5 -65.5t-24.5 -58.5t-40 -68.5t-60 -76l-20 -25q46 4 78.5 3.5t77.5 -3t53 -2.5q53 0 153 -28.5t152 -28.5q73 0 166 37l59 -136q-101 -43 -190 -43z" />
    <glyph glyph-name="yen" unicode="&#xa5;" horiz-adv-x="1017" 
d="M422 18v275h-348v96h348v250h-348v96h278l-289 639h144l278 -633l285 633h145l-290 -639h280v-96h-350v-250h350v-96h-350v-275h-133z" />
    <glyph glyph-name="copyright" unicode="&#xa9;" horiz-adv-x="1660" 
d="M795 -16q-138 0 -263.5 53.5t-216.5 144.5t-144.5 216.5t-53.5 263.5t53.5 263.5t144.5 216t216.5 144t263.5 53.5t263.5 -53.5t216.5 -144t144.5 -216t53.5 -263.5t-53.5 -263.5t-144.5 -216.5t-216.5 -144.5t-263.5 -53.5zM795 162q136 0 251 67t181.5 182t66.5 251
q0 102 -39.5 194.5t-106 159t-159 106t-194.5 39.5q-136 0 -251 -66.5t-182 -181.5t-67 -251t67 -251t182 -182t251 -67zM797 326q-140 0 -231 96t-91 244t91 244t231 96q123 0 210.5 -77.5t106.5 -203.5h-131q-17 72 -67 114t-119 42q-83 0 -138 -60.5t-55 -154.5
q0 -92 55 -153.5t138 -61.5q68 0 118.5 42.5t67.5 114.5h131q-19 -127 -105.5 -204.5t-211.5 -77.5z" />
    <glyph glyph-name="registered" unicode="&#xae;" horiz-adv-x="1499" 
d="M795 -16q-138 0 -263.5 53.5t-216.5 144.5t-144.5 216.5t-53.5 263.5t53.5 263.5t144.5 216t216.5 144t263.5 53.5t263.5 -53.5t216.5 -144t144.5 -216t53.5 -263.5t-53.5 -263.5t-144.5 -216.5t-216.5 -144.5t-263.5 -53.5zM795 162q136 0 251 67t181.5 182t66.5 251
q0 102 -39.5 194.5t-106 159t-159 106t-194.5 39.5q-136 0 -251 -66.5t-182 -181.5t-67 -251t67 -251t182 -182t251 -67zM539 383v565h385q72 0 115.5 -46.5t43.5 -121.5q0 -68 -38 -113t-101 -51q44 -67 139 -233h-120l-136 231h-182v-231h-106zM645 717h279q25 0 39 15.5
t14 41.5v17q0 25 -14 40t-39 15h-279v-129z" />
    <glyph glyph-name="degree" unicode="&#xb0;" horiz-adv-x="1007" 
d="M502 543q-169 0 -272 107t-103 284t103 283t274 106q170 0 273.5 -106t103.5 -281q0 -177 -104.5 -285t-274.5 -108zM502 668q106 0 173.5 74.5t67.5 191.5t-66.5 190.5t-172.5 73.5q-108 0 -176 -74t-68 -192q0 -117 68 -190.5t174 -73.5z" />
    <glyph glyph-name="multiply" unicode="&#xd7;" horiz-adv-x="1202" 
d="M948 172l-346 381l-348 -381l-88 98l346 377l-346 379l86 96l350 -379l346 379l90 -96l-350 -379l350 -379z" />
    <glyph glyph-name="divide" unicode="&#xf7;" horiz-adv-x="1300" 
d="M649 971q-40 0 -66 29t-26 75t26 75.5t66 29.5q41 0 67.5 -30t26.5 -75t-26.5 -74.5t-67.5 -29.5zM190 586v125h922v-125h-922zM649 115q-40 0 -66 30t-26 74q0 46 26 76.5t66 30.5q41 0 67.5 -31t26.5 -76t-26.5 -74.5t-67.5 -29.5z" />
    <glyph glyph-name="endash" unicode="&#x2013;" horiz-adv-x="1955" 
d="M190 586v125h1577v-125h-1577z" />
    <glyph glyph-name="emdash" unicode="&#x2014;" horiz-adv-x="2478" 
d="M190 586v125h2100v-125h-2100z" />
    <glyph glyph-name="quoteleft" unicode="&#x2018;" horiz-adv-x="466" 
d="M238 799q-52 0 -81.5 41.5t-29.5 115.5q0 91 43 185.5t113 158.5l12 -12q-48 -77 -92 -235q76 -22 97 -37q40 -30 40 -92q0 -58 -27.5 -91.5t-74.5 -33.5z" />
    <glyph glyph-name="quoteright" unicode="&#x2019;" horiz-adv-x="466" 
d="M182 821l-12 13q46 75 94 235q-76 22 -98 37q-39 28 -39 92q0 58 27.5 91.5t74.5 33.5q52 0 81.5 -42t29.5 -116q0 -89 -43.5 -184t-114.5 -160z" />
    <glyph glyph-name="quotesinglbase" unicode="&#x201a;" horiz-adv-x="466" 
d="M182 -23l-12 15q44 70 94 233q-75 24 -95 38q-42 29 -42 95q0 58 27.5 91.5t74.5 33.5q51 0 81 -42t30 -117q0 -89 -43.5 -185t-114.5 -162z" />
    <glyph glyph-name="quotedblleft" unicode="&#x201c;" horiz-adv-x="989" 
d="M238 799q-52 0 -81.5 41.5t-29.5 115.5q0 91 43 185.5t113 158.5l12 -12q-48 -77 -92 -235q76 -22 97 -37q40 -30 40 -92q0 -58 -27.5 -91.5t-74.5 -33.5zM760 799q-51 0 -80 42t-29 115q0 91 43 185.5t113 158.5l12 -12q-48 -77 -92 -235q75 -22 96 -37q39 -30 39 -92
q0 -58 -27.5 -91.5t-74.5 -33.5z" />
    <glyph glyph-name="quotedblright" unicode="&#x201d;" horiz-adv-x="989" 
d="M182 821l-12 13q46 75 94 235q-76 22 -98 37q-39 28 -39 92q0 58 27.5 91.5t74.5 33.5q51 0 81 -42.5t30 -115.5q0 -89 -43.5 -184t-114.5 -160zM707 821l-13 13q48 77 92 235q-75 22 -96 37q-39 29 -39 92q0 58 28 91.5t75 33.5q51 0 79.5 -42t28.5 -116
q0 -90 -42.5 -185t-112.5 -159z" />
    <glyph glyph-name="quotedblbase" unicode="&#x201e;" horiz-adv-x="989" 
d="M182 -23l-12 15q44 70 94 233q-75 24 -95 38q-42 29 -42 95q0 58 27 91.5t73 33.5q53 0 83 -43t30 -118q0 -89 -43.5 -184t-114.5 -161zM707 -23l-13 15q46 72 92 233q-73 24 -92 37q-43 29 -43 96q0 58 27.5 91.5t73.5 33.5q52 0 81 -43t29 -118q0 -90 -42.5 -184.5
t-112.5 -160.5z" />
    <glyph glyph-name="bullet" unicode="&#x2022;" horiz-adv-x="651" 
d="M324 428q-91 0 -144 59t-53 160t53 160t144 59q92 0 146 -59.5t54 -159.5t-54 -159.5t-146 -59.5z" />
    <glyph glyph-name="Euro" unicode="&#x20ac;" horiz-adv-x="1357" 
d="M801 -29q-246 0 -408 164t-200 451h-130v125h130q38 287 200 449.5t410 162.5q137 0 254 -49.5t200 -143.5l-110 -96q-65 73 -153 112.5t-187 39.5q-164 0 -286 -107t-163 -288l-18 -80h645v-125h-645l18 -80q41 -181 163 -287t288 -106q98 0 186 38.5t152 110.5l110 -98
q-85 -94 -202 -143.5t-254 -49.5z" />
    <glyph glyph-name="uni2120" unicode="&#x2120;" horiz-adv-x="1548" 
d="M397 614q-151 0 -242.5 61t-91.5 161h132q0 -43 55 -70t143 -27q79 0 127.5 27t48.5 70q0 35 -27 53.5t-70.5 23.5t-96 6.5t-105.5 9t-96.5 24t-70.5 58t-27 105.5q0 106 76 164.5t213 58.5q147 0 235 -60.5t88 -160.5h-133q0 43 -49.5 69.5t-132.5 26.5
q-73 0 -117.5 -24t-44.5 -64q0 -33 27 -50.5t70 -22t95 -6.5t104.5 -9.5t95.5 -25.5t70 -60.5t27 -107.5q0 -109 -79.5 -169.5t-223.5 -60.5zM774 627v710h213l123 -491l121 491h217v-710h-131v565l-146 -565h-124l-144 565v-565h-129z" />
    <glyph glyph-name="trademark" unicode="&#x2122;" horiz-adv-x="1466" 
d="M270 627v585h-207v125h549v-125h-202v-585h-140zM692 627v710h213l125 -491l121 491h215v-710h-129v565l-147 -565h-123l-144 565v-565h-131z" />
    <glyph glyph-name="minus" unicode="&#x2212;" horiz-adv-x="1300" 
d="M190 586v125h922v-125h-922z" />
    <glyph glyph-name="_FSHallmark" horiz-adv-x="2328" 
d="M109 1499v211h2119v-211h-2119zM1774 496q-203 0 -336 91t-133 230l243 -2q0 -7 13 -37q15 -47 74 -78.5t134 -31.5q80 0 138.5 24t58.5 58q0 28 -35.5 49t-92 35.5t-124.5 29t-136.5 35t-125 48t-92 73.5t-35.5 106q0 110 131.5 185t323.5 75q188 0 308 -80t120 -206
h-254q0 43 -58 78.5t-127 35.5t-122.5 -30t-53.5 -70q0 -52 60 -84q30 -17 76 -27.5t111.5 -21.5t98.5 -18q120 -22 166 -41q120 -51 121 -164q0 -112 -129 -187t-323 -75zM109 496v888h890v-202h-612v-199h508v-197h-508v-290h-278zM1110 500q-54 0 -93.5 33.5t-39.5 78.5
q0 42 34.5 69.5t88.5 27.5q60 0 102.5 -31t42.5 -74q0 -41 -40.5 -72.5t-94.5 -31.5zM100 174v213h2126v-213h-2126z" />
    <glyph glyph-name="_Fontastica" horiz-adv-x="1982" 
d="M102 319q-2 4 -2 15v1444h1284v-219h-987v-598h994v-224h-994v-418h-295zM582 322v221h995v596h-995v225h995v414h295v-1456h-1290zM1608 88q-22 0 -56 12q-24 38 -24 56q0 23 25.5 43t56.5 20q33 0 57 -24l-12 -17q-26 15 -37 15q-22 0 -38.5 -13t-16.5 -30
q0 -15 13 -25t34 -10q22 0 45 10l12 -10q-20 -27 -59 -27zM102 90v125h111v-22h-72v-33h70v-21h-70v-49h-39zM344 82q-29 0 -53.5 22t-24.5 48q0 28 23.5 45.5t58.5 17.5q54 0 72 -35q14 -11 14 -33q0 -28 -19.5 -41.5t-44 -17.5t-26.5 -6zM612 88l-22 12q-3 8 -25.5 33.5
t-34.5 34.5v-78h-32v125h28q12 0 15 -14q5 -6 17 -16.5t17 -16.5q4 -5 13 -18.5t14 -18.5v84h31v-125q-15 0 -21 -2zM743 90v103h-45v22h125v-22h-49v-103h-31zM1133 88q-47 0 -68 18l10 19q30 -10 45 -10h21q6 6 10 6q0 14 -12 18.5t-27 4t-27 6.5t-12 24q0 41 62 41
q33 0 53 -10l-10 -25q-4 3 -18 6t-19 7h-21q-6 0 -10 -9q0 -9 10 -16q68 -6 68 -45q0 -35 -55 -35zM1284 90v103h-45v22h127v-22h-45v-103h-37zM1425 90v125h39v-125h-39zM1718 90q44 78 60 125h41l30 -57q2 -9 14.5 -35.5t18.5 -32.5h-33l-14 27h-72l-12 -27h-33zM854 90
l61 121h35q4 -7 17.5 -28.5t19.5 -35.5l23 -57h-33l-2 10q-3 3 -8 17h-68q-4 -12 -4 -17l-10 -10h-31zM346 113q43 0 43 39q0 41 -45 41q-4 -3 -17.5 -8.5t-21.5 -12.5t-8 -18q0 -9 6 -15q9 -26 43 -26zM905 139h49q-4 15 -10 21t-6 14l-4 10zM1772 139h49l-2 11
q-5 2 -8 11.5t-7 12.5q-4 8 -6 10z" />
    </font>
</defs>
</svg>
