<svg xmlns="http://www.w3.org/2000/svg" fill="none" viewBox="0 0 1322 173"><path fill="currentColor" d="M79.527 165.311c6.82 0 12.615-1.111 17.389-3.332 4.944-2.392 8.183-4.699 9.717-6.92l2.301-3.588-1.534 16.403H0v-2.563c8.353-11.448 18.411-24.263 30.174-38.444 11.934-14.182 21.907-25.801 29.919-34.857 8.183-9.055 15.428-18.282 21.736-27.68 6.307-9.397 9.802-17.086 10.484-23.066 1.364-10.594-1.193-19.65-7.672-27.168C78.163 6.407 67.85 2.648 53.7 2.82c-6.308.171-11.848 1.453-16.621 3.845-4.603 2.22-8.013 4.955-10.229 8.201-2.216 3.247-4.006 6.493-5.37 9.74-1.364 3.246-2.13 6.065-2.301 8.457l-.256 3.332H8.183c0-1.025.085-2.307.256-3.844.34-1.709 1.363-4.614 3.068-8.714 1.875-4.272 4.347-7.946 7.416-11.021C21.99 9.568 26.85 6.664 33.499 4.1 40.147 1.367 47.904 0 56.769 0c9.546 0 17.73 1.538 24.548 4.613 6.82 2.905 11.678 6.835 14.576 11.79 3.069 4.784 5.114 9.654 6.137 14.609a39.653 39.653 0 0 1 .256 14.865c-1.023 6.151-3.665 12.558-7.927 19.222-4.092 6.493-9.12 12.986-15.087 19.479-5.797 6.493-15.088 17.342-27.873 32.549-12.616 15.036-25.316 31.098-38.102 48.184h66.23ZM191.47 2.05c22.673 0 39.295 9.056 49.864 27.168 9.718 16.915 12.019 36.821 6.905 59.717-5.626 24.775-18.326 45.108-38.102 60.998-15.002 11.961-32.561 19.65-52.677 23.067v-2.307c18.241-4.955 34.351-14.181 48.33-27.68 14.15-13.669 24.123-30.413 29.919-50.234-1.364 2.05-3.069 4.016-5.115 5.895-2.045 1.88-4.858 4.015-8.438 6.407-3.58 2.222-8.098 4.016-13.553 5.383s-11.507 2.05-18.156 2.05c-17.9 0-32.39-4.87-43.471-14.609-11.081-9.91-16.622-22.896-16.622-38.957 0-16.232 5.541-29.73 16.622-40.495C158.057 7.518 172.888 2.05 191.47 2.05Zm.767 106.62c3.41 0 7.075-.513 10.996-1.538 4.091-1.196 8.353-3.161 12.786-5.895 4.603-2.734 8.609-6.066 12.018-9.995 3.58-3.93 6.308-8.97 8.183-15.122 2.046-6.322 2.728-13.242 2.046-20.76-1.875-14.694-6.99-26.74-15.343-36.138-8.183-9.397-19.605-14.01-34.266-13.84-10.399 0-19.264 2.99-26.594 8.97-7.16 5.81-12.189 12.645-15.087 20.504a69.838 69.838 0 0 0-4.347 24.348c0 12.644 4.432 24.092 13.297 34.344 8.865 10.081 20.968 15.122 36.311 15.122ZM352.752 0l-70.833 170.95h-2.813L349.939 0h2.813ZM450.623 170.95c-19.094 0-35.459-8.287-49.098-24.861-13.467-16.745-20.201-36.907-20.201-60.486 0-24.263 6.308-44.596 18.923-60.999C412.862 8.201 429.654 0 450.623 0c19.093 0 35.373 8.287 48.841 24.86 13.638 16.575 20.457 36.651 20.457 60.23 0 23.409-6.478 43.571-19.434 60.486-12.956 16.916-29.578 25.374-49.864 25.374Zm-7.16-166.337c-9.547.171-18.412 4.443-26.595 12.815-8.183 8.202-14.49 18.966-18.922 32.294-4.262 13.327-5.711 27.081-4.348 41.263 2.046 22.042 8.95 40.239 20.713 54.591 11.934 14.182 26.083 21.102 42.449 20.76 14.32-.341 26.679-9.226 37.078-26.655 10.399-17.428 14.917-37.077 13.553-58.948-1.534-23.75-8.353-42.46-20.457-56.129-12.104-13.669-26.594-20.332-43.471-19.99ZM602.511 2.05c22.673 0 39.295 9.056 49.864 27.168 9.717 16.915 12.019 36.821 6.905 59.717-5.626 24.775-18.327 45.108-38.102 60.998-15.002 11.961-32.561 19.65-52.677 23.067v-2.307c18.241-4.955 34.351-14.181 48.33-27.68 14.15-13.669 24.122-30.413 29.919-50.234-1.364 2.05-3.069 4.016-5.115 5.895-2.045 1.88-4.858 4.015-8.438 6.407-3.58 2.222-8.098 4.016-13.553 5.383s-11.507 2.05-18.156 2.05c-17.9 0-32.39-4.87-43.471-14.609-11.081-9.91-16.622-22.896-16.622-38.957 0-16.232 5.541-29.73 16.622-40.495C569.098 7.518 583.929 2.05 602.511 2.05Zm.767 106.62c3.41 0 7.075-.513 10.996-1.538 4.091-1.196 8.353-3.161 12.786-5.895 4.602-2.734 8.609-6.066 12.018-9.995 3.58-3.93 6.308-8.97 8.183-15.122 2.046-6.322 2.728-13.242 2.046-20.76-1.875-14.694-6.99-26.74-15.343-36.138-8.183-9.397-19.605-14.01-34.266-13.84-10.399 0-19.264 2.99-26.594 8.97-7.16 5.81-12.189 12.645-15.087 20.504a69.838 69.838 0 0 0-4.347 24.348c0 12.644 4.432 24.092 13.297 34.344 8.864 10.081 20.968 15.122 36.311 15.122ZM763.793 0 692.96 170.95h-2.813L760.98 0h2.813ZM871.892 165.311c6.819 0 12.615-1.111 17.389-3.332 4.943-2.392 8.183-4.699 9.717-6.92l2.301-3.588-1.534 16.403h-107.4v-2.563c8.353-11.448 18.411-24.263 30.174-38.444 11.934-14.182 21.906-25.801 29.919-34.857 8.183-9.055 15.428-18.282 21.736-27.68 6.307-9.397 9.802-17.086 10.484-23.066 1.364-10.594-1.193-19.65-7.672-27.168-6.478-7.689-16.792-11.448-30.941-11.277-6.308.171-11.848 1.453-16.621 3.845-4.603 2.22-8.013 4.955-10.229 8.201-2.216 3.247-4.006 6.493-5.37 9.74-1.364 3.246-2.131 6.065-2.301 8.457l-.256 3.332h-10.74c0-1.025.085-2.307.255-3.844.341-1.709 1.364-4.614 3.069-8.714 1.875-4.272 4.347-7.946 7.416-11.021 3.068-3.247 7.927-6.151 14.576-8.714C832.512 1.367 840.269 0 849.134 0c9.546 0 17.729 1.538 24.548 4.613 6.819 2.905 11.678 6.835 14.576 11.79 3.068 4.784 5.114 9.654 6.137 14.609a39.653 39.653 0 0 1 .256 14.865c-1.023 6.151-3.666 12.558-7.927 19.222-4.092 6.493-9.121 12.986-15.088 19.479-5.796 6.493-15.087 17.342-27.872 32.549-12.616 15.036-25.316 31.098-38.102 48.184h66.23ZM992.018 170.95c-19.093 0-35.459-8.287-49.097-24.861-13.468-16.745-20.202-36.907-20.202-60.486 0-24.263 6.308-44.596 18.923-60.999C954.257 8.201 971.049 0 992.018 0c19.092 0 35.372 8.287 48.842 24.86 13.64 16.575 20.46 36.651 20.46 60.23 0 23.409-6.48 43.571-19.44 60.486-12.95 16.916-29.58 25.374-49.862 25.374Zm-7.16-166.337c-9.547.171-18.411 4.443-26.594 12.815-8.183 8.202-14.491 18.966-18.923 32.294-4.262 13.327-5.711 27.081-4.347 41.263 2.045 22.042 8.95 40.239 20.713 54.591 11.933 14.182 26.082 21.102 42.448 20.76 14.325-.341 26.675-9.226 37.075-26.655 10.4-17.428 14.92-37.077 13.56-58.948-1.54-23.75-8.36-42.46-20.46-56.129-12.1-13.669-26.59-20.332-43.472-19.99ZM1162.32 165.311c6.82 0 12.61-1.111 17.39-3.332 4.94-2.392 8.18-4.699 9.71-6.92l2.3-3.588-1.53 16.403h-107.4v-2.563c8.35-11.448 18.41-24.263 30.17-38.444 11.94-14.182 21.91-25.801 29.92-34.857 8.19-9.055 15.43-18.282 21.74-27.68 6.31-9.397 9.8-17.086 10.48-23.066 1.37-10.594-1.19-19.65-7.67-27.168-6.48-7.689-16.79-11.448-30.94-11.277-6.31.171-11.85 1.453-16.62 3.845-4.6 2.22-8.01 4.955-10.23 8.201-2.22 3.247-4.01 6.493-5.37 9.74-1.36 3.246-2.13 6.065-2.3 8.457l-.26 3.332h-10.74c0-1.025.09-2.307.26-3.844.34-1.709 1.36-4.614 3.07-8.714 1.87-4.272 4.34-7.946 7.41-11.021 3.07-3.247 7.93-6.151 14.58-8.714 6.65-2.734 14.4-4.101 23.27-4.101 9.55 0 17.73 1.538 24.55 4.613 6.82 2.905 11.68 6.835 14.57 11.79 3.07 4.784 5.12 9.654 6.14 14.609 1.02 4.955 1.11 9.91.26 14.865-1.03 6.151-3.67 12.558-7.93 19.222-4.09 6.493-9.12 12.986-15.09 19.479-5.79 6.493-15.09 17.342-27.87 32.549-12.62 15.036-25.32 31.098-38.1 48.184h66.23ZM1263.52 170.95c-8.35 0-15.85-1.026-22.5-3.076-6.48-2.221-11.42-4.87-14.83-7.945-3.24-3.076-5.97-6.066-8.19-8.97-2.04-3.076-3.32-5.639-3.83-7.689l-1.03-3.332h10.75c.17.854.42 1.965.76 3.332.34 1.196 1.54 3.417 3.58 6.663a40.24 40.24 0 0 0 7.42 8.714c2.9 2.392 7.16 4.614 12.78 6.664 5.8 2.05 12.36 2.99 19.69 2.819 10.91-.171 20.72-4.613 29.41-13.327 8.87-8.714 12.7-22.127 11.51-40.239-.68-8.885-3.24-16.317-7.67-22.297-4.44-6.151-9.89-10.423-16.37-12.815-6.48-2.563-13.47-3.76-20.97-3.588-7.5 0-14.74 1.367-21.73 4.1l-.77-2.05c15.51-5.98 28.04-12.815 37.59-20.504 9.55-7.688 15.09-15.206 16.62-22.554 2.05-9.397-.08-17.172-6.39-23.323-6.14-6.322-13.73-9.397-22.76-9.226-6.14.17-11.51 1.452-16.11 3.844-4.6 2.221-7.93 5.04-9.97 8.458-2.05 3.246-3.67 6.578-4.86 9.995-1.2 3.247-1.88 6.066-2.05 8.458l-.25 3.332h-11V32.55c.17-1.709.94-4.614 2.3-8.714 1.54-4.272 3.67-7.946 6.39-11.021 2.9-3.247 7.59-6.151 14.07-8.714C1251.76 1.367 1259.6 0 1268.64 0c11.42 0 20.71 3.246 27.87 9.74 7.33 6.321 10.14 14.437 8.44 24.347-1.2 6.664-4.27 12.473-9.21 17.429-4.77 4.955-14.75 11.447-29.92 19.478 15.52-.854 28.39 2.734 38.62 10.764 10.39 8.031 16.19 19.735 17.38 35.113 1.2 14.353-3.66 26.997-14.57 37.932-10.91 10.764-25.49 16.147-43.73 16.147Z"/></svg>