<svg xmlns="http://www.w3.org/2000/svg" fill="none" viewBox="0 0 1383 77"><path fill="currentColor" d="M2.653 8.552c0-1.045-.163-2.123-.49-3.234-.326-1.11-.62-1.927-.882-2.45l-.49-.882H8.24a12.853 12.853 0 0 0-1.764 6.566v49.882c0 1.045.131 2.123.392 3.234.327 1.045.621 1.862.882 2.45l.49.882H.791c1.242-2.025 1.862-4.214 1.862-6.566V8.552ZM67 1.986h4.214c-1.045 2.025-1.568 4.214-1.568 6.566V65h-2.646L25.153 6.788v51.646c0 1.045.13 2.123.392 3.234.261 1.11.522 1.96.784 2.548l.392.784h-4.214c1.045-2.025 1.568-4.214 1.568-6.566V8.846c0-1.045-.163-2.123-.49-3.234-.262-1.176-.523-2.09-.784-2.744l-.392-.882h4.312l41.846 58.212V8.552c0-1.045-.13-2.123-.392-3.234-.261-1.11-.523-1.927-.784-2.45l-.392-.882Zm19.668 6.566a11.44 11.44 0 0 0-.49-3.234c-.327-1.11-.62-1.927-.882-2.45l-.49-.882h28.42l6.958-.588.392 5.292a9.786 9.786 0 0 0-.882-.98c-.392-.457-1.241-1.013-2.548-1.666-1.241-.719-2.548-1.078-3.92-1.078H90.489v24.01h15.68c1.045 0 2.123-.13 3.234-.392 1.176-.261 2.058-.523 2.646-.784l.882-.392v4.116a15.314 15.314 0 0 0-6.762-1.568h-15.68v30.478c0 1.045.13 2.123.392 3.234.327 1.045.653 1.862.98 2.45l.49.882h-7.546c1.241-2.025 1.862-4.214 1.862-6.566V8.552Zm47.203 1.862C140.273 4.011 147.982.81 156.998.81s16.693 3.201 23.03 9.604c6.403 6.403 9.604 14.112 9.604 23.128s-3.201 16.725-9.604 23.128c-6.337 6.337-14.014 9.506-23.03 9.506-9.016 0-16.725-3.169-23.128-9.506-6.337-6.403-9.506-14.112-9.506-23.128s3.169-16.725 9.506-23.128Zm25.97 53.998c7.448-.457 13.72-3.659 18.816-9.604 5.096-5.945 7.252-13.034 6.468-21.266-.784-8.69-4.181-16.105-10.192-22.246-5.945-6.207-12.936-9.081-20.972-8.624-7.448.457-13.687 3.659-18.718 9.604-5.031 5.945-7.154 13.034-6.37 21.266.784 8.69 4.116 16.137 9.996 22.344 5.945 6.141 12.936 8.983 20.972 8.526Zm71.909-53.018c10.192-.065 18.195 2.777 24.01 8.526 5.815 5.75 8.559 13.393 8.232 22.932-.261 7.71-2.777 13.426-7.546 17.15-4.704 3.659-9.375 4.443-14.014 2.352-3.005-1.372-4.41-4.083-4.214-8.134-.196.392-.686 1.078-1.47 2.058-.784.98-2.156 2.123-4.116 3.43-1.895 1.241-3.855 1.862-5.88 1.862-4.116 0-7.187-1.666-9.212-4.998-1.96-3.397-2.515-7.71-1.666-12.936.915-5.75 3.234-10.355 6.958-13.818 3.724-3.528 7.775-5.292 12.152-5.292 3.267 0 5.749 1.34 7.448 4.018l3.626-1.568-4.508 28.322c-.653 3.92.425 6.305 3.234 7.154 2.809.915 5.847.033 9.114-2.646 4.639-3.855 7.089-9.473 7.35-16.856.327-9.539-2.123-17.052-7.35-22.54-5.161-5.553-12.675-8.297-22.54-8.232-7.775.065-14.667 3.169-20.678 9.31-6.011 6.076-8.918 14.08-8.722 24.01.065 5.684 1.274 10.715 3.626 15.092 2.352 4.312 5.325 7.579 8.918 9.8a36.438 36.438 0 0 0 11.858 4.606c4.247.85 8.461.85 12.642 0 4.247-.784 7.971-2.287 11.172-4.508l.392.49c-5.227 3.724-11.107 5.619-17.64 5.684-9.735.13-17.836-2.58-24.304-8.134-6.403-5.488-9.669-13.132-9.8-22.932-.131-9.604 2.94-17.673 9.212-24.206 6.272-6.599 14.177-9.93 23.716-9.996Zm8.82 27.832c1.503-9.016-.686-13.59-6.566-13.72-3.136-.065-6.174 1.699-9.114 5.292-2.94 3.593-4.769 7.775-5.488 12.544-.784 5.096-.359 9.245 1.274 12.446 1.699 3.136 4.116 4.639 7.252 4.508 1.764-.065 3.626-.882 5.586-2.45a21.964 21.964 0 0 0 4.9-5.782l2.156-12.838Zm63.114-36.848c-6.794 0-12.903 2.94-18.326 8.82-5.357 5.815-8.134 12.936-8.33 21.364-.261 8.69 2.32 16.235 7.742 22.638 5.488 6.403 12.675 9.604 21.56 9.604 3.463 0 7.122-.784 10.976-2.352 3.855-1.568 6.828-3.528 8.918-5.88l.784.49c-5.553 6.076-13.328 9.114-23.324 9.114-9.408 0-17.019-3.169-22.834-9.506-5.749-6.403-8.624-14.112-8.624-23.128 0-9.343 3.234-17.117 9.702-23.324C288.395 3.946 296.464.81 306.133.81c2.94 0 5.652.294 8.134.882 2.548.588 4.574 1.307 6.076 2.156 1.503.784 2.777 1.568 3.822 2.352 1.046.784 1.764 1.47 2.156 2.058l.686.882h-5.782a4.667 4.667 0 0 0-.588-.686c-.196-.327-.784-.882-1.764-1.666-.914-.784-1.992-1.47-3.234-2.058-1.176-.588-2.842-1.11-4.998-1.568-2.09-.523-4.41-.784-6.958-.784Zm35.64 6.174c0-1.045-.163-2.123-.49-3.234-.261-1.11-.555-1.927-.882-2.45l-.392-.882h7.35a12.853 12.853 0 0 0-1.764 6.566v49.882c0 1.437.294 2.744.882 3.92.654 1.11 1.568 1.666 2.744 1.666h15.484c2.614 0 4.835-.425 6.664-1.274 1.895-.915 3.136-1.797 3.724-2.646l.882-1.372-.588 6.272h-35.378a12.853 12.853 0 0 0 1.764-6.566V8.552ZM432.413 65h-7.448c.653-1.045.294-3.234-1.078-6.566l-5.88-14.21h-29.498l-5.88 14.21c-.588 1.633-.784 2.94-.588 3.92.196.915.555 1.6 1.078 2.058l.784.588h-5.782c.98-1.176 2.123-3.365 3.43-6.566l21.07-51.058-1.47-3.724L405.659.81c-.392 1.372.032 3.528 1.274 6.468l21.266 51.156a33.704 33.704 0 0 0 1.764 3.43c.718 1.045 1.306 1.83 1.764 2.352l.686.784Zm-43.512-21.756h28.714L403.209 8.65l-14.308 34.594Zm84.437 4.802c1.438 6.925 2.614 11.27 3.528 13.034 1.438 2.679 3.626 4.05 6.566 4.116v.784c-7.056 0-11.335-3.463-12.838-10.388-.784-3.659-1.502-6.403-2.156-8.232-.588-1.895-1.47-3.56-2.646-4.998-1.176-1.503-2.646-2.483-4.41-2.94-1.698-.523-3.985-.784-6.86-.784h-7.154v19.796c0 1.045.164 2.123.49 3.234.327 1.045.621 1.862.882 2.45l.49.882h-7.546c1.242-2.025 1.862-4.214 1.862-6.566V8.552c0-1.045-.163-2.123-.49-3.234-.261-1.11-.555-1.927-.882-2.45l-.49-.882h10.388c5.292 0 9.735.49 13.328 1.47 3.594.915 6.272 2.254 8.036 4.018 1.83 1.764 3.104 3.626 3.822 5.586.719 1.96 1.078 4.247 1.078 6.86 0 1.307-.098 2.58-.294 3.822-.196 1.241-.686 2.679-1.47 4.312a15.756 15.756 0 0 1-2.94 4.312c-1.176 1.241-2.874 2.417-5.096 3.528-2.221 1.045-4.834 1.797-7.84 2.254 3.267.196 6.044 1.143 8.33 2.842 2.287 1.699 3.724 4.05 4.312 7.056Zm-25.97-10.388h6.86c3.92 0 7.252-.588 9.996-1.764 2.744-1.176 4.77-2.744 6.076-4.704 1.307-1.96 2.222-3.855 2.744-5.684.523-1.83.784-3.691.784-5.586 0-11.303-7.48-16.954-22.442-16.954h-4.018v34.692ZM543.907 65h-7.448c.653-1.045.294-3.234-1.078-6.566l-5.88-14.21h-29.498l-5.88 14.21c-.588 1.633-.784 2.94-.588 3.92.196.915.555 1.6 1.078 2.058l.784.588h-5.782c.98-1.176 2.123-3.365 3.43-6.566l21.07-51.058-1.47-3.724L517.153.81c-.392 1.372.032 3.528 1.274 6.468l21.266 51.156a33.704 33.704 0 0 0 1.764 3.43c.718 1.045 1.306 1.83 1.764 2.352l.686.784Zm-43.512-21.756h28.714L514.703 8.65l-14.308 34.594Zm84.437 4.802c1.438 6.925 2.614 11.27 3.528 13.034 1.438 2.679 3.626 4.05 6.566 4.116v.784c-7.056 0-11.335-3.463-12.838-10.388-.784-3.659-1.502-6.403-2.156-8.232-.588-1.895-1.47-3.56-2.646-4.998-1.176-1.503-2.646-2.483-4.41-2.94-1.698-.523-3.985-.784-6.86-.784h-7.154v19.796c0 1.045.164 2.123.49 3.234.327 1.045.621 1.862.882 2.45l.49.882h-7.546c1.242-2.025 1.862-4.214 1.862-6.566V8.552c0-1.045-.163-2.123-.49-3.234-.261-1.11-.555-1.927-.882-2.45l-.49-.882h10.388c5.292 0 9.735.49 13.328 1.47 3.594.915 6.272 2.254 8.036 4.018 1.83 1.764 3.104 3.626 3.822 5.586.719 1.96 1.078 4.247 1.078 6.86 0 1.307-.098 2.58-.294 3.822-.196 1.241-.686 2.679-1.47 4.312a15.756 15.756 0 0 1-2.94 4.312c-1.176 1.241-2.874 2.417-5.096 3.528-2.221 1.045-4.834 1.797-7.84 2.254 3.267.196 6.044 1.143 8.33 2.842 2.287 1.699 3.724 4.05 4.312 7.056Zm-25.97-10.388h6.86c3.92 0 7.252-.588 9.996-1.764 2.744-1.176 4.77-2.744 6.076-4.704 1.307-1.96 2.222-3.855 2.744-5.684.523-1.83.784-3.691.784-5.586 0-11.303-7.48-16.954-22.442-16.954h-4.018v34.692Zm81.42-29.106L623.72 37.364v21.07c0 1.045.163 2.123.49 3.234.327 1.045.621 1.862.882 2.45l.49.882h-7.546c1.241-2.025 1.862-4.214 1.862-6.566v-19.6L602.552 8.552l-4.116-6.566h7.056c-.261 1.895.327 4.083 1.764 6.566l15.876 27.832 15.876-27.832c.653-1.11 1.045-2.221 1.176-3.332.131-1.11.131-1.927 0-2.45l-.294-.784h4.606c-.915 1.11-2.319 3.3-4.214 6.566ZM692.342 65h-7.448c.654-1.045.294-3.234-1.078-6.566l-5.88-14.21h-29.498l-5.88 14.21c-.588 1.633-.784 2.94-.588 3.92.196.915.556 1.6 1.078 2.058l.784.588h-5.782c.98-1.176 2.124-3.365 3.43-6.566l21.07-51.058-1.47-3.724L665.588.81c-.392 1.372.033 3.528 1.274 6.468l21.266 51.156a34.115 34.115 0 0 0 1.764 3.43c.719 1.045 1.307 1.83 1.764 2.352l.686.784ZM648.83 43.244h28.714L663.138 8.65 648.83 43.244Zm97.374-41.258h4.214c-1.045 2.025-1.568 4.214-1.568 6.566V65h-2.646L704.358 6.788v51.646c0 1.045.131 2.123.392 3.234.261 1.11.523 1.96.784 2.548l.392.784h-4.214c1.045-2.025 1.568-4.214 1.568-6.566V8.846c0-1.045-.163-2.123-.49-3.234-.261-1.176-.523-2.09-.784-2.744l-.392-.882h4.312l41.846 58.212V8.552a14.12 14.12 0 0 0-.392-3.234c-.261-1.11-.523-1.927-.784-2.45l-.392-.882Zm93.168 0h5.488c-.784.915-1.829 3.103-3.136 6.566l-21.952 57.036h-1.078L802.132 23.35l-16.17 42.238h-1.078L762.736 8.552c-.588-1.568-1.143-2.875-1.666-3.92-.523-1.11-.882-1.83-1.078-2.156l-.392-.49h6.566c-.523 1.83-.294 4.018.686 6.566l20.09 51.646 14.7-38.318-5.096-13.328c-.588-1.568-1.143-2.875-1.666-3.92-.523-1.11-.915-1.83-1.176-2.156l-.294-.49h6.566c-.523 1.83-.294 4.018.686 6.566l20.09 51.646 19.796-51.646c.392-1.307.49-2.45.294-3.43-.131-.98-.425-1.731-.882-2.254l-.588-.882Zm16.559 6.566c0-1.045-.163-2.123-.49-3.234-.261-1.11-.555-1.927-.882-2.45l-.49-.882h28.42l6.86-.588.392 5.586c-.196-.327-.49-.686-.882-1.078-.392-.457-1.209-1.045-2.45-1.764-1.241-.784-2.548-1.176-3.92-1.176h-22.736v24.01h16.464c1.045 0 2.123-.13 3.234-.392 1.176-.261 2.058-.523 2.646-.784l.98-.392v4.116c-2.221-1.045-4.508-1.568-6.86-1.568h-16.464v30.478c0 1.437.294 2.744.882 3.92.653 1.11 1.601 1.666 2.842 1.666h18.718c2.548 0 4.737-.425 6.566-1.274 1.895-.915 3.136-1.797 3.724-2.646l.882-1.372-.588 6.272h-38.71c1.241-2.025 1.862-4.214 1.862-6.566V8.552Zm60.926-6.566c6.664 0 12.348.915 17.052 2.744 4.704 1.83 8.232 4.345 10.584 7.546 2.417 3.136 4.116 6.435 5.096 9.898.98 3.397 1.47 7.154 1.47 11.27 0 2.352-.294 4.802-.882 7.35-.588 2.483-1.731 5.227-3.43 8.232-1.633 2.94-3.757 5.586-6.37 7.938-2.548 2.287-6.076 4.214-10.584 5.782-4.443 1.503-9.506 2.254-15.19 2.254h-10.29a12.853 12.853 0 0 0 1.764-6.566V8.552c0-1.045-.163-2.123-.49-3.234-.261-1.11-.555-1.927-.882-2.45l-.392-.882h12.544Zm-2.254 62.034c9.277 0 16.889-2.94 22.834-8.82 5.945-5.945 8.983-13.197 9.114-21.756.131-9.343-2.515-16.758-7.938-22.246-5.357-5.488-12.936-8.232-22.736-8.232h-5.978v55.468c0 3.724 1.568 5.586 4.704 5.586Zm59.963-62.034c6.664 0 12.348.915 17.052 2.744 4.704 1.83 8.232 4.345 10.582 7.546 2.42 3.136 4.12 6.435 5.1 9.898.98 3.397 1.47 7.154 1.47 11.27 0 2.352-.3 4.802-.88 7.35-.59 2.483-1.74 5.227-3.43 8.232-1.64 2.94-3.76 5.586-6.374 7.938-2.548 2.287-6.076 4.214-10.584 5.782-4.443 1.503-9.506 2.254-15.19 2.254h-10.29a12.853 12.853 0 0 0 1.764-6.566V8.552c0-1.045-.163-2.123-.49-3.234-.261-1.11-.555-1.927-.882-2.45l-.392-.882h12.544Zm-2.254 62.034c9.277 0 16.889-2.94 22.834-8.82 5.944-5.945 8.984-13.197 9.114-21.756.13-9.343-2.52-16.758-7.938-22.246-5.357-5.488-12.936-8.232-22.736-8.232h-5.978v55.468c0 3.724 1.568 5.586 4.704 5.586Zm49.768-55.468c0-1.045-.16-2.123-.49-3.234-.32-1.11-.62-1.927-.88-2.45l-.49-.882h7.45c-1.18 2.025-1.76 4.214-1.76 6.566v49.882c0 1.045.13 2.123.39 3.234.32 1.045.62 1.862.88 2.45l.49.882h-7.45c1.24-2.025 1.86-4.214 1.86-6.566V8.552Zm64.35-6.566h4.21c-1.04 2.025-1.57 4.214-1.57 6.566V65h-2.64l-41.85-58.212v51.646c0 1.045.13 2.123.39 3.234.27 1.11.53 1.96.79 2.548l.39.784h-4.21c1.04-2.025 1.56-4.214 1.56-6.566V8.846c0-1.045-.16-2.123-.49-3.234-.26-1.176-.52-2.09-.78-2.744l-.39-.882h4.31L1088 60.198V8.552c0-1.045-.13-2.123-.4-3.234-.26-1.11-.52-1.927-.78-2.45l-.39-.882Zm15.16 31.556c0-9.539 2.97-17.379 8.92-23.52 5.94-6.141 13.85-9.212 23.71-9.212 2.81 0 5.43.294 7.84.882 2.42.588 4.35 1.307 5.78 2.156 1.44.784 2.68 1.568 3.73 2.352 1.04.784 1.76 1.47 2.15 2.058l.59.882h-5.78a4.827 4.827 0 0 0-.59-.686c-.26-.327-.88-.882-1.86-1.666-.91-.784-1.96-1.47-3.14-2.058-1.17-.588-2.8-1.11-4.9-1.568-2.02-.523-4.21-.784-6.56-.784-7.51 0-13.69 3.038-18.52 9.114-4.77 6.01-6.99 13.36-6.67 22.05.13 4.377.75 8.395 1.86 12.054 1.12 3.593 2.72 6.86 4.81 9.8 2.15 2.94 4.99 5.26 8.52 6.958 3.53 1.633 7.61 2.45 12.25 2.45 4.05 0 8.1-.947 12.15-2.842 4.12-1.895 6.18-3.855 6.18-5.88v-16.17c0-1.045-.16-2.09-.49-3.136-.26-1.11-.52-1.96-.79-2.548l-.49-.784 5.59-4.116v27.734c-.13.261-.39.588-.78.98-.33.392-1.15 1.11-2.45 2.156a27.186 27.186 0 0 1-4.41 2.842c-1.64.784-3.89 1.503-6.77 2.156-2.8.653-5.88.98-9.21.98-8.88 0-16.23-3.07-22.05-9.212-5.75-6.207-8.62-14.014-8.62-23.422Zm72.33 30.87c-.65.653-1.44.98-2.35.98-.92 0-1.7-.327-2.36-.98-.65-.653-.98-1.437-.98-2.352 0-.915.33-1.699.98-2.352.66-.653 1.44-.98 2.36-.98.91 0 1.7.327 2.35.98.65.653.98 1.437.98 2.352 0 .915-.33 1.699-.98 2.352Zm36.74-62.034c-6.79 0-12.9 2.94-18.32 8.82-5.36 5.815-8.14 12.936-8.33 21.364-.27 8.69 2.32 16.235 7.74 22.638 5.49 6.403 12.67 9.604 21.56 9.604 3.46 0 7.12-.784 10.97-2.352 3.86-1.568 6.83-3.528 8.92-5.88l.79.49c-5.56 6.076-13.33 9.114-23.33 9.114-9.41 0-17.02-3.169-22.83-9.506-5.75-6.403-8.63-14.112-8.63-23.128 0-9.343 3.24-17.117 9.71-23.324 6.46-6.272 14.53-9.408 24.2-9.408 2.94 0 5.65.294 8.14.882 2.54.588 4.57 1.307 6.07 2.156 1.5.784 2.78 1.568 3.82 2.352 1.05.784 1.77 1.47 2.16 2.058l.69.882h-5.79a4.664 4.664 0 0 0-.58-.686c-.2-.327-.79-.882-1.77-1.666-.91-.784-1.99-1.47-3.23-2.058-1.18-.588-2.84-1.11-5-1.568-2.09-.523-4.41-.784-6.96-.784Zm39.2 8.036c6.41-6.403 14.12-9.604 23.13-9.604 9.02 0 16.69 3.201 23.03 9.604 6.4 6.403 9.61 14.112 9.61 23.128s-3.21 16.725-9.61 23.128c-6.34 6.337-14.01 9.506-23.03 9.506-9.01 0-16.72-3.169-23.13-9.506-6.33-6.403-9.5-14.112-9.5-23.128s3.17-16.725 9.5-23.128Zm25.97 53.998c7.45-.457 13.72-3.659 18.82-9.604 5.1-5.945 7.25-13.034 6.47-21.266-.79-8.69-4.18-16.105-10.19-22.246-5.95-6.207-12.94-9.081-20.98-8.624-7.44.457-13.68 3.659-18.71 9.604-5.03 5.945-7.16 13.034-6.37 21.266.78 8.69 4.11 16.137 9.99 22.344 5.95 6.141 12.94 8.983 20.97 8.526Zm104.96-55.86v49.882c0 1.045.13 2.123.39 3.234.33 1.11.66 1.96.98 2.548l.49.784h-7.54c1.24-2.025 1.86-4.214 1.86-6.566V10.61l-27.34 54.978h-1.28l-27.83-56.35v49.196c0 1.045.13 2.123.39 3.234.27 1.11.53 1.96.79 2.548l.39.784h-4.21c1.04-2.025 1.56-4.214 1.56-6.566V8.846c0-.915-.16-1.862-.49-2.842l-.39-.686h.1l-2.06-3.332h4.61l29.3 59.486 26.46-53.214V1.986h5.68c-1.24 2.025-1.86 4.214-1.86 6.566Z"/><a><path fill="none" d="M.441.162h1396.07v123.676H.441z"/></a></svg>