<svg xmlns="http://www.w3.org/2000/svg" fill="none" viewBox="0 0 100 115"><g clip-path="url(#a)"><path fill="#231F20" d="M78.657 92.844a3.588 3.588 0 0 1-1.476-1.342 7.782 7.782 0 0 1-.872-2.213 22.674 22.674 0 0 1-.603-2.75c0-.906-.336-2.046-.57-3.354a51.798 51.798 0 0 0-.873-3.89C73.09 74.8 69.535 72.352 63.6 71.915c9.3-1.61 13.951-6.472 13.951-14.589a13.213 13.213 0 0 0-.939-5.064 13.818 13.818 0 0 0-3.354-4.527 15.194 15.194 0 0 0-6.875-3.354 105.512 105.512 0 0 0-17.17-1.275H39.15l.537.705c.449.688.83 1.418 1.14 2.18.383.82.588 1.71.603 2.616v22.034a19.854 19.854 0 0 1-10.363-6.909A26.83 26.83 0 0 1 25.4 45.656a27.401 27.401 0 0 1 5.668-17.07 16.77 16.77 0 0 1 13.415-6.708 21.53 21.53 0 0 1 5.232.604c1.298.274 2.56.702 3.756 1.274a12.714 12.714 0 0 1 2.415 1.643c.47.412.918.849 1.342 1.308l.436.57h6.204l-.47-.704a8.756 8.756 0 0 0-1.777-1.71 32.007 32.007 0 0 0-3.052-2.046 18.207 18.207 0 0 0-4.796-1.71 28.748 28.748 0 0 0-6.54-.705 26.83 26.83 0 0 0-19.418 7.48 24.885 24.885 0 0 0-7.78 18.713 26.495 26.495 0 0 0 6.908 18.513 22.94 22.94 0 0 0 14.589 6.942v15.73a8.485 8.485 0 0 1-2.28 5.5h8.988l-.537-.805a7.245 7.245 0 0 1-1.174-2.08 6.876 6.876 0 0 1-.537-2.615V72.385H58.3a10.897 10.897 0 0 1 8.619 2.716 24.447 24.447 0 0 1 3.622 10.766 9.358 9.358 0 0 0 3.622 6.506 11.672 11.672 0 0 0 6.707 1.979v-.872a4.696 4.696 0 0 1-2.213-.637ZM47.735 71.246H46.06V43.979a41.814 41.814 0 0 1 7.378 0c4.04-.072 8.05.705 11.771 2.28a12.108 12.108 0 0 1 6.943 10.934 17.777 17.777 0 0 1-.604 4.662 15.563 15.563 0 0 1-2.046 4.46 10.23 10.23 0 0 1-4.293 3.623 15.896 15.896 0 0 1-6.875 1.374l-10.598-.066Z"/></g><path stroke="#000" stroke-width="2" d="M1 57.5C1 26.16 23.065 1 50 1s49 25.16 49 56.5S76.935 114 50 114 1 88.84 1 57.5Z"/><defs><clipPath id="a"><path fill="#fff" d="M0 0h60.938v74.219H0z" transform="translate(20 20)"/></clipPath></defs></svg>