<svg xmlns="http://www.w3.org/2000/svg" fill="none" viewBox="0 0 79 83"><path fill="#000" fill-rule="evenodd" d="M34.648 12.997c-6.85 3.346-13.28 9.462-17.602 17.584-4.323 8.123-5.68 16.635-4.43 23.81 1.251 7.174 5.085 12.933 11.08 15.766s13.186 2.284 20.037-1.063c6.85-3.347 13.279-9.463 17.602-17.585 4.323-8.122 5.68-16.635 4.43-23.809-1.251-7.175-5.085-12.933-11.08-15.766S41.498 9.65 34.648 12.997Zm20.56-2.048c-12.797-6.047-30.343 2.525-39.19 19.147-8.846 16.621-5.644 34.998 7.154 41.045 12.797 6.047 30.344-2.525 39.19-19.146 8.847-16.622 5.644-34.998-7.153-41.046Z" clip-rule="evenodd"/><path fill="#000" fill-rule="evenodd" d="M34.648 12.997c-6.85 3.346-13.28 9.462-17.602 17.584-4.323 8.123-5.68 16.635-4.43 23.81 1.251 7.174 5.085 12.933 11.08 15.766s13.186 2.284 20.037-1.063c6.85-3.347 13.279-9.463 17.602-17.585 4.323-8.122 5.68-16.635 4.43-23.809-1.251-7.175-5.085-12.933-11.08-15.766S41.498 9.65 34.648 12.997Zm20.56-2.048c-12.797-6.047-30.343 2.525-39.19 19.147-8.846 16.621-5.644 34.998 7.154 41.045 12.797 6.047 30.344-2.525 39.19-19.146 8.847-16.622 5.644-34.998-7.153-41.046Z" clip-rule="evenodd"/><path fill="#000" fill-rule="evenodd" d="M35.352 13.309c-6.683 3.427-13.012 9.597-17.34 17.729-4.328 8.131-5.79 16.601-4.709 23.697 1.082 7.099 4.684 12.724 10.393 15.422 5.71 2.698 12.648 2.053 19.333-1.376 6.683-3.427 13.012-9.597 17.34-17.728 4.329-8.132 5.791-16.602 4.71-23.697-1.083-7.1-4.685-12.725-10.394-15.423-5.71-2.697-12.648-2.053-19.333 1.376Zm19.857-2.36C42.945 5.154 25.831 13.93 16.984 30.552c-8.847 16.621-6.076 34.794 6.188 40.589 12.265 5.795 29.378-2.981 38.225-19.603 8.847-16.621 6.076-34.794-6.188-40.589Z" clip-rule="evenodd"/><path fill="#000" d="M36.997 23.988a2.496 2.496 0 0 0-.035.411v.412c0 .48.08.88.24 1.2.184.32.412.583.687.79.274.182.583.32.926.41.366.07.731.104 1.097.104.618 0 1.246-.149 1.887-.446a6.71 6.71 0 0 0 1.75-1.27 6.677 6.677 0 0 0 1.268-1.886 5.057 5.057 0 0 0 .515-2.23c0-.96-.263-1.6-.79-1.92-.525-.343-1.234-.515-2.126-.515-1.029 0-2.16.252-3.396.755-1.234.48-2.492 1.155-3.773 2.024a26.55 26.55 0 0 0-3.67 3.087 27.157 27.157 0 0 0-3.155 3.876 20.745 20.745 0 0 0-2.196 4.39 13.741 13.741 0 0 0-.823 4.665c0 .64.08 1.28.24 1.92.16.641.412 1.224.755 1.75.343.503.789.915 1.338 1.235.548.297 1.212.446 1.99.446a7.04 7.04 0 0 0 3.189-.755 9.39 9.39 0 0 0 2.675-2.024 10.004 10.004 0 0 0 1.853-2.744c.457-1.029.686-2.046.686-3.052 0-.915-.275-1.613-.824-2.093-.526-.48-1.246-.72-2.16-.72l-.035-.412c1.44 0 2.504.286 3.19.858.709.572 1.063 1.543 1.063 2.915 0 .8-.217 1.693-.651 2.676-.412.983-1.03 1.91-1.853 2.778-.823.846-1.852 1.555-3.087 2.127-1.212.572-2.606.857-4.184.857-1.19 0-2.195-.206-3.019-.617-.8-.412-1.452-.926-1.955-1.544a6.101 6.101 0 0 1-1.097-1.989c-.206-.732-.309-1.406-.309-2.024 0-1.44.309-2.904.926-4.39a21.085 21.085 0 0 1 2.435-4.356 27.03 27.03 0 0 1 3.533-3.91 28.664 28.664 0 0 1 4.082-3.19c1.418-.915 2.824-1.635 4.219-2.161 1.418-.526 2.71-.79 3.876-.79 1.44 0 2.515.298 3.224.893.71.594 1.063 1.463 1.063 2.606 0 .8-.194 1.544-.583 2.23a5.616 5.616 0 0 1-1.509 1.784 7.94 7.94 0 0 1-2.126 1.166c-.8.274-1.624.411-2.47.411-.892 0-1.658-.206-2.298-.617-.64-.435-.983-1.166-1.03-2.195v-.446c0-.183.012-.343.035-.48h.412Z"/><path fill="#000" d="M36.034 45.324c0 .96-.171 1.909-.514 2.846a8.338 8.338 0 0 1-1.441 2.47 7.11 7.11 0 0 1-2.16 1.784c-.824.434-1.739.651-2.745.651-1.44 0-2.595-.423-3.464-1.269-.846-.846-1.27-1.99-1.27-3.43 0-1.143.252-2.252.755-3.327a11.79 11.79 0 0 1 2.058-3.018 15.942 15.942 0 0 1 3.053-2.538 21.626 21.626 0 0 1 3.739-1.99 23.188 23.188 0 0 1 4.116-1.269 20.847 20.847 0 0 1 4.219-.446c.983 0 1.99.08 3.018.24 1.052.16 1.955.435 2.71.823.229-.091.491-.194.789-.308.297-.115.606-.218.926-.309a9.35 9.35 0 0 1 .995-.274c.32-.092.617-.149.891-.172l.035.206a7.236 7.236 0 0 0-1.647.412c-.526.205-1.017.434-1.475.686 1.738.983 2.607 2.4 2.607 4.253 0 1.212-.24 2.252-.72 3.121a6.041 6.041 0 0 1-1.852 2.092c-.755.526-1.624.915-2.607 1.167-.983.228-1.99.343-3.019.343v.068c.71.297 1.235.698 1.578 1.2.366.48.549 1.11.549 1.887 0 .503-.114 1.12-.343 1.852a36.491 36.491 0 0 1-.72 2.264 63.105 63.105 0 0 0-.755 2.196c-.229.686-.343 1.257-.343 1.715 0 .731.332 1.097.995 1.097.686 0 1.475-.229 2.367-.686.914-.48 1.875-1.212 2.88-2.195 1.762-1.715 3.42-3.808 4.974-6.277l.309.137a68.528 68.528 0 0 1-1.887 2.778c-.708 1.007-1.577 2.036-2.606 3.087-2.264 2.379-4.357 3.568-6.277 3.568-.8 0-1.44-.195-1.921-.583-.458-.39-.686-.972-.686-1.75 0-.503.126-1.109.377-1.818.275-.708.572-1.44.892-2.195.32-.755.606-1.51.858-2.264.251-.754.377-1.417.377-1.99 0-.868-.24-1.44-.72-1.714-.458-.275-1.064-.469-1.819-.583l.138-.343c.251.046.491.08.72.103.229.023.469.034.72.034 1.006 0 1.921-.183 2.744-.549a6.473 6.473 0 0 0 2.093-1.543 7.064 7.064 0 0 0 1.372-2.298c.32-.87.48-1.795.48-2.779 0-.571-.114-1.12-.343-1.646a2.811 2.811 0 0 0-.96-1.27c-1.167.687-2.287 1.739-3.362 3.156a61.842 61.842 0 0 0-3.19 4.7 1230.785 1230.785 0 0 1-3.258 5.282 43.546 43.546 0 0 1-3.499 4.973c-1.235 1.487-2.55 2.71-3.945 3.67-1.394.938-2.915 1.407-4.561 1.407a4.94 4.94 0 0 1-1.132-.138 3.958 3.958 0 0 1-1.064-.411 2.96 2.96 0 0 1-.754-.755A1.985 1.985 0 0 1 23 58.358c0-.412.126-.743.377-.995.252-.252.595-.377 1.03-.377.32 0 .571.103.754.308.206.206.309.458.309.755 0 .274-.08.537-.24.789-.16.251-.4.366-.72.343.068.297.308.572.72.823.411.229.88.343 1.406.343 1.189 0 2.298-.457 3.327-1.372 1.052-.938 2.08-2.138 3.087-3.602a58.104 58.104 0 0 0 3.053-4.87 95.451 95.451 0 0 1 3.258-5.248 41.051 41.051 0 0 1 3.739-4.733c1.35-1.441 2.835-2.55 4.459-3.328a8.047 8.047 0 0 0-2.538-.788 18.942 18.942 0 0 0-2.744-.206c-1.144 0-2.355.125-3.636.377a22.445 22.445 0 0 0-3.739 1.098 21 21 0 0 0-3.498 1.783 14.103 14.103 0 0 0-2.95 2.47 11.267 11.267 0 0 0-2.024 3.053c-.503 1.097-.755 2.298-.755 3.601 0 1.258.31 2.252.927 2.984.617.732 1.486 1.098 2.606 1.098.984 0 1.864-.229 2.642-.686a6.788 6.788 0 0 0 2.023-1.75 7.723 7.723 0 0 0 1.304-2.366 7.818 7.818 0 0 0 .446-2.538h.411Z"/></svg>