<svg xmlns="http://www.w3.org/2000/svg" fill="none" viewBox="0 0 958 276"><path fill="currentColor" d="M0 47.12h4.864c7.904-35.264 50.464-35.872 74.784-35.872v186.656c0 19.456-.304 50.464-5.168 60.496-3.344 7.296-7.296 11.552-13.68 13.376h60.8c-5.776-1.824-11.248-5.776-13.68-12.768-5.472-10.64-5.776-48.336-5.776-66.88V11.248c22.496 0 70.832 1.216 74.176 37.088h5.168V7.296H0V47.12ZM313.83 275.424c67.792 0 137.104-50.464 137.104-140.144C450.934 44.688 378.582 0 312.006 0c-67.792 0-137.104 44.688-137.104 134.976 0 89.984 71.44 140.448 138.928 140.448Zm-114-152.608c0-63.84 39.52-118.56 105.792-118.56 75.392 0 120.688 81.776 120.688 149.872 0 62.624-40.432 117.344-105.488 117.344-74.48 0-120.992-81.168-120.992-148.656ZM476.121 60.8v135.28c0 19.152-.304 60.8-12.768 71.44-2.736 1.824-5.776 3.344-8.208 4.256h49.856c-2.736-.608-6.08-2.128-8.512-4.256-12.464-9.728-12.464-52.896-12.464-71.44V44.992L622.345 273.6h10.336V81.776c0-18.24.608-60.496 13.072-71.136 1.824-1.52 4.56-2.432 6.688-3.344h-47.424c2.432.608 5.168 1.824 6.992 3.344 12.464 10.64 13.072 52.896 13.072 71.136v5.168l-.912 147.44L486.761 7.296h-37.088c24.016 6.384 26.448 26.448 26.448 53.504ZM672.021 7.296c3.039 1.216 6.687 3.04 9.727 6.08 7.296 7.296 7.601 51.072 7.601 65.664v108.528c0 6.992 0 21.584-.305 35.568-.304 13.984-1.216 29.184-4.255 35.872-1.521 4.56-3.649 7.6-6.689 9.424-1.216 1.52-3.648 2.736-5.472 3.344h58.368c-3.648-1.216-8.208-2.736-10.336-5.776-8.816-9.728-9.12-51.072-9.12-66.576V79.344c0-13.984.304-58.368 8.817-66.576 2.127-2.736 6.08-4.256 9.12-5.472h-57.456ZM861.439 275.728l1.824-.304c47.728-.608 87.856-52.288 94.544-101.536l-6.384-2.736c-6.688 45.904-42.256 98.496-93.328 98.8-56.848-1.824-79.344-67.792-79.344-133.152 0-65.968 21.28-133.152 82.384-133.152 37.088 0 85.424 31.92 86.64 97.888h4.864V38.912C934.399 21.888 909.167 0 863.567 0h-2.432c-66.576.912-109.744 57.152-109.744 137.712 0 79.952 42.256 138.016 110.048 138.016Z"/></svg>